<svg width="415" height="72" viewBox="0 0 415 72" fill="none" xmlns="http://www.w3.org/2000/svg">
<rect x="60" width="296" height="66" fill="#E2D1F2"/>
<rect x="60" width="296" height="66" fill="#E2D1F2"/>
<rect x="68" y="8" width="280" height="50" fill="#B27AF4"/>
<rect x="68" y="8" width="280" height="50" fill="#B27AF4"/>
<path d="M90.3725 28.7645C90.1763 28.7645 90.0781 28.4578 90.0781 27.8445C90.0781 27.2312 90.1763 26.9246 90.3725 26.9246H97.1066C97.3152 26.9246 97.4194 27.2312 97.4194 27.8445C97.4194 28.4578 97.3152 28.7645 97.1066 28.7645H90.3725ZM90.3725 31.2116C90.1763 31.2116 90.0781 30.9049 90.0781 30.2916C90.0781 29.6783 90.1763 29.3717 90.3725 29.3717H106.895C107.104 29.3717 107.208 29.6783 107.208 30.2916C107.208 30.9049 107.104 31.2116 106.895 31.2116H90.3725ZM90.3725 36.1058C90.1763 36.1058 90.0781 35.7991 90.0781 35.1858C90.0781 34.5725 90.1763 34.2659 90.3725 34.2659H94.6595C94.8681 34.2659 94.9723 34.5725 94.9723 35.1858C94.9723 35.7991 94.8681 36.1058 94.6595 36.1058H90.3725ZM90.3725 38.5529C90.1763 38.5529 90.0781 38.2462 90.0781 37.6329C90.0781 37.0196 90.1763 36.713 90.3725 36.713H94.6595C94.8681 36.713 94.9723 37.0196 94.9723 37.6329C94.9723 38.2462 94.8681 38.5529 94.6595 38.5529H90.3725ZM90.3725 26.3174C90.1763 26.3174 90.0781 26.0107 90.0781 25.3974C90.0781 24.7841 90.1763 24.4775 90.3725 24.4775H94.6595C94.8681 24.4775 94.9723 24.7841 94.9723 25.3974C94.9723 26.0107 94.8681 26.3174 94.6595 26.3174H90.3725ZM90.3725 41C90.1763 41 90.0781 40.6933 90.0781 40.08C90.0781 39.4667 90.1763 39.1601 90.3725 39.1601H94.6595C94.8681 39.1601 94.9723 39.4667 94.9723 40.08C94.9723 40.6933 94.8681 41 94.6595 41H90.3725ZM100.161 28.7645C99.9647 28.7645 99.8665 28.4578 99.8665 27.8445C99.8665 27.2312 99.9647 26.9246 100.161 26.9246H106.895C107.104 26.9246 107.208 27.2312 107.208 27.8445C107.208 28.4578 107.104 28.7645 106.895 28.7645H100.161ZM102.608 36.1058C102.412 36.1058 102.314 35.7991 102.314 35.1858C102.314 34.5725 102.412 34.2659 102.608 34.2659H106.895C107.104 34.2659 107.208 34.5725 107.208 35.1858C107.208 35.7991 107.104 36.1058 106.895 36.1058H102.608ZM102.608 38.5529C102.412 38.5529 102.314 38.2462 102.314 37.6329C102.314 37.0196 102.412 36.713 102.608 36.713H106.895C107.104 36.713 107.208 37.0196 107.208 37.6329C107.208 38.2462 107.104 38.5529 106.895 38.5529H102.608ZM102.608 26.3174C102.412 26.3174 102.314 26.0107 102.314 25.3974C102.314 24.7841 102.412 24.4775 102.608 24.4775H106.895C107.104 24.4775 107.208 24.7841 107.208 25.3974C107.208 26.0107 107.104 26.3174 106.895 26.3174H102.608ZM102.608 41C102.412 41 102.314 40.6933 102.314 40.08C102.314 39.4667 102.412 39.1601 102.608 39.1601H106.895C107.104 39.1601 107.208 39.4667 107.208 40.08C107.208 40.6933 107.104 41 106.895 41H102.608ZM97.7138 36.1058C97.5176 36.1058 97.4194 35.7991 97.4194 35.1858C97.4194 34.5725 97.5176 34.2659 97.7138 34.2659H99.5537C99.7623 34.2659 99.8665 34.5725 99.8665 35.1858C99.8665 35.7991 99.7623 36.1058 99.5537 36.1058H97.7138ZM90.3725 33.6587C90.1763 33.6587 90.0781 33.352 90.0781 32.7387C90.0781 32.1254 90.1763 31.8188 90.3725 31.8188H106.895C107.104 31.8188 107.208 32.1254 107.208 32.7387C107.208 33.352 107.104 33.6587 106.895 33.6587H90.3725ZM109.943 26.3174C109.747 26.3174 109.648 26.0107 109.648 25.3974C109.648 24.7841 109.747 24.4775 109.943 24.4775H114.23C114.438 24.4775 114.543 24.7841 114.543 25.3974C114.543 26.0107 114.438 26.3174 114.23 26.3174H109.943ZM112.39 41C112.194 41 112.096 40.6933 112.096 40.08C112.096 39.4667 112.194 39.1601 112.39 39.1601H124.018C124.227 39.1601 124.331 39.4667 124.331 40.08C124.331 40.6933 124.227 41 124.018 41H112.39ZM109.943 28.7645C109.747 28.7645 109.648 28.4578 109.648 27.8445C109.648 27.2312 109.747 26.9246 109.943 26.9246H114.23C114.438 26.9246 114.543 27.2312 114.543 27.8445C114.543 28.4578 114.438 28.7645 114.23 28.7645H109.943ZM109.943 36.1058C109.747 36.1058 109.648 35.7991 109.648 35.1858C109.648 34.5725 109.747 34.2659 109.943 34.2659H114.23C114.438 34.2659 114.543 34.5725 114.543 35.1858C114.543 35.7991 114.438 36.1058 114.23 36.1058H109.943ZM109.943 38.5529C109.747 38.5529 109.648 38.2462 109.648 37.6329C109.648 37.0196 109.747 36.713 109.943 36.713H114.23C114.438 36.713 114.543 37.0196 114.543 37.6329C114.543 38.2462 114.438 38.5529 114.23 38.5529H109.943ZM109.943 31.2116C109.747 31.2116 109.648 30.9049 109.648 30.2916C109.648 29.6783 109.747 29.3717 109.943 29.3717H114.23C114.438 29.3717 114.543 29.6783 114.543 30.2916C114.543 30.9049 114.438 31.2116 114.23 31.2116H109.943ZM109.943 33.6587C109.747 33.6587 109.648 33.352 109.648 32.7387C109.648 32.1254 109.747 31.8188 109.943 31.8188H114.23C114.438 31.8188 114.543 32.1254 114.543 32.7387C114.543 33.352 114.438 33.6587 114.23 33.6587H109.943ZM122.178 26.3174C121.982 26.3174 121.884 26.0107 121.884 25.3974C121.884 24.7841 121.982 24.4775 122.178 24.4775H126.465C126.674 24.4775 126.778 24.7841 126.778 25.3974C126.778 26.0107 126.674 26.3174 126.465 26.3174H122.178ZM122.178 28.7645C121.982 28.7645 121.884 28.4578 121.884 27.8445C121.884 27.2312 121.982 26.9246 122.178 26.9246H126.465C126.674 26.9246 126.778 27.2312 126.778 27.8445C126.778 28.4578 126.674 28.7645 126.465 28.7645H122.178ZM122.178 36.1058C121.982 36.1058 121.884 35.7991 121.884 35.1858C121.884 34.5725 121.982 34.2659 122.178 34.2659H126.465C126.674 34.2659 126.778 34.5725 126.778 35.1858C126.778 35.7991 126.674 36.1058 126.465 36.1058H122.178ZM122.178 38.5529C121.982 38.5529 121.884 38.2462 121.884 37.6329C121.884 37.0196 121.982 36.713 122.178 36.713H126.465C126.674 36.713 126.778 37.0196 126.778 37.6329C126.778 38.2462 126.674 38.5529 126.465 38.5529H122.178ZM122.178 31.2116C121.982 31.2116 121.884 30.9049 121.884 30.2916C121.884 29.6783 121.982 29.3717 122.178 29.3717H126.465C126.674 29.3717 126.778 29.6783 126.778 30.2916C126.778 30.9049 126.674 31.2116 126.465 31.2116H122.178ZM122.178 33.6587C121.982 33.6587 121.884 33.352 121.884 32.7387C121.884 32.1254 121.982 31.8188 122.178 31.8188H126.465C126.674 31.8188 126.778 32.1254 126.778 32.7387C126.778 33.352 126.674 33.6587 126.465 33.6587H122.178ZM129.513 28.7645C129.317 28.7645 129.219 28.4578 129.219 27.8445C129.219 27.2312 129.317 26.9246 129.513 26.9246H133.8C134.009 26.9246 134.113 27.2312 134.113 27.8445C134.113 28.4578 134.009 28.7645 133.8 28.7645H129.513ZM129.513 26.3174C129.317 26.3174 129.219 26.0107 129.219 25.3974C129.219 24.7841 129.317 24.4775 129.513 24.4775H133.8C134.009 24.4775 134.113 24.7841 134.113 25.3974C134.113 26.0107 134.009 26.3174 133.8 26.3174H129.513ZM129.513 31.2116C129.317 31.2116 129.219 30.9049 129.219 30.2916C129.219 29.6783 129.317 29.3717 129.513 29.3717H133.8C134.009 29.3717 134.113 29.6783 134.113 30.2916C134.113 30.9049 134.009 31.2116 133.8 31.2116H129.513ZM129.513 36.1058C129.317 36.1058 129.219 35.7991 129.219 35.1858C129.219 34.5725 129.317 34.2659 129.513 34.2659H133.8C134.009 34.2659 134.113 34.5725 134.113 35.1858C134.113 35.7991 134.009 36.1058 133.8 36.1058H129.513ZM129.513 33.6587C129.317 33.6587 129.219 33.352 129.219 32.7387C129.219 32.1254 129.317 31.8188 129.513 31.8188H133.8C134.009 31.8188 134.113 32.1254 134.113 32.7387C134.113 33.352 134.009 33.6587 133.8 33.6587H129.513ZM129.513 38.5529C129.317 38.5529 129.219 38.2462 129.219 37.6329C129.219 37.0196 129.317 36.713 129.513 36.713H133.8C134.009 36.713 134.113 37.0196 134.113 37.6329C134.113 38.2462 134.009 38.5529 133.8 38.5529H129.513ZM129.513 41C129.317 41 129.219 40.6933 129.219 40.08C129.219 39.4667 129.317 39.1601 129.513 39.1601H146.036C146.244 39.1601 146.348 39.4667 146.348 40.08C146.348 40.6933 146.244 41 146.036 41H129.513ZM156.425 28.7645C156.228 28.7645 156.13 28.4578 156.13 27.8445C156.13 27.2312 156.228 26.9246 156.425 26.9246H160.712C160.92 26.9246 161.025 27.2312 161.025 27.8445C161.025 28.4578 160.92 28.7645 160.712 28.7645H156.425ZM151.531 26.3174C151.334 26.3174 151.236 26.0107 151.236 25.3974C151.236 24.7841 151.334 24.4775 151.531 24.4775H165.606C165.815 24.4775 165.919 24.7841 165.919 25.3974C165.919 26.0107 165.815 26.3174 165.606 26.3174H151.531ZM156.425 31.2116C156.228 31.2116 156.13 30.9049 156.13 30.2916C156.13 29.6783 156.228 29.3717 156.425 29.3717H160.712C160.92 29.3717 161.025 29.6783 161.025 30.2916C161.025 30.9049 160.92 31.2116 160.712 31.2116H156.425ZM156.425 38.5529C156.228 38.5529 156.13 38.2462 156.13 37.6329C156.13 37.0196 156.228 36.713 156.425 36.713H160.712C160.92 36.713 161.025 37.0196 161.025 37.6329C161.025 38.2462 160.92 38.5529 160.712 38.5529H156.425ZM156.425 41C156.228 41 156.13 40.6933 156.13 40.08C156.13 39.4667 156.228 39.1601 156.425 39.1601H160.712C160.92 39.1601 161.025 39.4667 161.025 40.08C161.025 40.6933 160.92 41 160.712 41H156.425ZM156.425 33.6587C156.228 33.6587 156.13 33.352 156.13 32.7387C156.13 32.1254 156.228 31.8188 156.425 31.8188H160.712C160.92 31.8188 161.025 32.1254 161.025 32.7387C161.025 33.352 160.92 33.6587 160.712 33.6587H156.425ZM156.425 36.1058C156.228 36.1058 156.13 35.7991 156.13 35.1858C156.13 34.5725 156.228 34.2659 156.425 34.2659H160.712C160.92 34.2659 161.025 34.5725 161.025 35.1858C161.025 35.7991 160.92 36.1058 160.712 36.1058H156.425ZM171.101 26.3174C170.905 26.3174 170.806 26.0107 170.806 25.3974C170.806 24.7841 170.905 24.4775 171.101 24.4775H185.176C185.385 24.4775 185.489 24.7841 185.489 25.3974C185.489 26.0107 185.385 26.3174 185.176 26.3174H171.101ZM175.995 28.7645C175.799 28.7645 175.701 28.4578 175.701 27.8445C175.701 27.2312 175.799 26.9246 175.995 26.9246H180.282C180.491 26.9246 180.595 27.2312 180.595 27.8445C180.595 28.4578 180.491 28.7645 180.282 28.7645H175.995ZM175.995 31.2116C175.799 31.2116 175.701 30.9049 175.701 30.2916C175.701 29.6783 175.799 29.3717 175.995 29.3717H180.282C180.491 29.3717 180.595 29.6783 180.595 30.2916C180.595 30.9049 180.491 31.2116 180.282 31.2116H175.995ZM175.995 33.6587C175.799 33.6587 175.701 33.352 175.701 32.7387C175.701 32.1254 175.799 31.8188 175.995 31.8188H180.282C180.491 31.8188 180.595 32.1254 180.595 32.7387C180.595 33.352 180.491 33.6587 180.282 33.6587H175.995ZM175.995 36.1058C175.799 36.1058 175.701 35.7991 175.701 35.1858C175.701 34.5725 175.799 34.2659 175.995 34.2659H180.282C180.491 34.2659 180.595 34.5725 180.595 35.1858C180.595 35.7991 180.491 36.1058 180.282 36.1058H175.995ZM175.995 38.5529C175.799 38.5529 175.701 38.2462 175.701 37.6329C175.701 37.0196 175.799 36.713 175.995 36.713H180.282C180.491 36.713 180.595 37.0196 180.595 37.6329C180.595 38.2462 180.491 38.5529 180.282 38.5529H175.995ZM171.101 41C170.905 41 170.806 40.6933 170.806 40.08C170.806 39.4667 170.905 39.1601 171.101 39.1601H185.176C185.385 39.1601 185.489 39.4667 185.489 40.08C185.489 40.6933 185.385 41 185.176 41H171.101ZM207.794 28.7645C207.598 28.7645 207.5 28.4578 207.5 27.8445C207.5 27.2312 207.598 26.9246 207.794 26.9246H212.081C212.29 26.9246 212.394 27.2312 212.394 27.8445C212.394 28.4578 212.29 28.7645 212.081 28.7645H207.794ZM220.03 28.7645C219.834 28.7645 219.736 28.4578 219.736 27.8445C219.736 27.2312 219.834 26.9246 220.03 26.9246H224.317C224.525 26.9246 224.63 27.2312 224.63 27.8445C224.63 28.4578 224.525 28.7645 224.317 28.7645H220.03ZM207.794 26.3174C207.598 26.3174 207.5 26.0107 207.5 25.3974C207.5 24.7841 207.598 24.4775 207.794 24.4775H221.87C222.078 24.4775 222.183 24.7841 222.183 25.3974C222.183 26.0107 222.078 26.3174 221.87 26.3174H207.794ZM207.794 31.2116C207.598 31.2116 207.5 30.9049 207.5 30.2916C207.5 29.6783 207.598 29.3717 207.794 29.3717H212.081C212.29 29.3717 212.394 29.6783 212.394 30.2916C212.394 30.9049 212.29 31.2116 212.081 31.2116H207.794ZM220.03 31.2116C219.834 31.2116 219.736 30.9049 219.736 30.2916C219.736 29.6783 219.834 29.3717 220.03 29.3717H224.317C224.525 29.3717 224.63 29.6783 224.63 30.2916C224.63 30.9049 224.525 31.2116 224.317 31.2116H220.03ZM207.794 36.1058C207.598 36.1058 207.5 35.7991 207.5 35.1858C207.5 34.5725 207.598 34.2659 207.794 34.2659H221.87C222.078 34.2659 222.183 34.5725 222.183 35.1858C222.183 35.7991 222.078 36.1058 221.87 36.1058H207.794ZM207.794 33.6587C207.598 33.6587 207.5 33.352 207.5 32.7387C207.5 32.1254 207.598 31.8188 207.794 31.8188H212.081C212.29 31.8188 212.394 32.1254 212.394 32.7387C212.394 33.352 212.29 33.6587 212.081 33.6587H207.794ZM207.794 38.5529C207.598 38.5529 207.5 38.2462 207.5 37.6329C207.5 37.0196 207.598 36.713 207.794 36.713H212.081C212.29 36.713 212.394 37.0196 212.394 37.6329C212.394 38.2462 212.29 38.5529 212.081 38.5529H207.794ZM207.794 41C207.598 41 207.5 40.6933 207.5 40.08C207.5 39.4667 207.598 39.1601 207.794 39.1601H212.081C212.29 39.1601 212.394 39.4667 212.394 40.08C212.394 40.6933 212.29 41 212.081 41H207.794ZM220.03 33.6587C219.834 33.6587 219.736 33.352 219.736 32.7387C219.736 32.1254 219.834 31.8188 220.03 31.8188H224.317C224.525 31.8188 224.63 32.1254 224.63 32.7387C224.63 33.352 224.525 33.6587 224.317 33.6587H220.03ZM227.365 28.7645C227.168 28.7645 227.07 28.4578 227.07 27.8445C227.07 27.2312 227.168 26.9246 227.365 26.9246H231.652C231.86 26.9246 231.965 27.2312 231.965 27.8445C231.965 28.4578 231.86 28.7645 231.652 28.7645H227.365ZM227.365 26.3174C227.168 26.3174 227.07 26.0107 227.07 25.3974C227.07 24.7841 227.168 24.4775 227.365 24.4775H231.652C231.86 24.4775 231.965 24.7841 231.965 25.3974C231.965 26.0107 231.86 26.3174 231.652 26.3174H227.365ZM227.365 31.2116C227.168 31.2116 227.07 30.9049 227.07 30.2916C227.07 29.6783 227.168 29.3717 227.365 29.3717H231.652C231.86 29.3717 231.965 29.6783 231.965 30.2916C231.965 30.9049 231.86 31.2116 231.652 31.2116H227.365ZM227.365 36.1058C227.168 36.1058 227.07 35.7991 227.07 35.1858C227.07 34.5725 227.168 34.2659 227.365 34.2659H231.652C231.86 34.2659 231.965 34.5725 231.965 35.1858C231.965 35.7991 231.86 36.1058 231.652 36.1058H227.365ZM227.365 33.6587C227.168 33.6587 227.07 33.352 227.07 32.7387C227.07 32.1254 227.168 31.8188 227.365 31.8188H231.652C231.86 31.8188 231.965 32.1254 231.965 32.7387C231.965 33.352 231.86 33.6587 231.652 33.6587H227.365ZM227.365 38.5529C227.168 38.5529 227.07 38.2462 227.07 37.6329C227.07 37.0196 227.168 36.713 227.365 36.713H231.652C231.86 36.713 231.965 37.0196 231.965 37.6329C231.965 38.2462 231.86 38.5529 231.652 38.5529H227.365ZM227.365 41C227.168 41 227.07 40.6933 227.07 40.08C227.07 39.4667 227.168 39.1601 227.365 39.1601H243.887C244.096 39.1601 244.2 39.4667 244.2 40.08C244.2 40.6933 244.096 41 243.887 41H227.365ZM249.382 28.7645C249.186 28.7645 249.088 28.4578 249.088 27.8445C249.088 27.2312 249.186 26.9246 249.382 26.9246H253.669C253.878 26.9246 253.982 27.2312 253.982 27.8445C253.982 28.4578 253.878 28.7645 253.669 28.7645H249.382ZM256.723 28.7645C256.527 28.7645 256.429 28.4578 256.429 27.8445C256.429 27.2312 256.527 26.9246 256.723 26.9246H261.01C261.219 26.9246 261.323 27.2312 261.323 27.8445C261.323 28.4578 261.219 28.7645 261.01 28.7645H256.723ZM251.829 26.3174C251.633 26.3174 251.535 26.0107 251.535 25.3974C251.535 24.7841 251.633 24.4775 251.829 24.4775H258.563C258.772 24.4775 258.876 24.7841 258.876 25.3974C258.876 26.0107 258.772 26.3174 258.563 26.3174H251.829ZM246.935 31.2116C246.739 31.2116 246.641 30.9049 246.641 30.2916C246.641 29.6783 246.739 29.3717 246.935 29.3717H251.222C251.431 29.3717 251.535 29.6783 251.535 30.2916C251.535 30.9049 251.431 31.2116 251.222 31.2116H246.935ZM259.171 31.2116C258.974 31.2116 258.876 30.9049 258.876 30.2916C258.876 29.6783 258.974 29.3717 259.171 29.3717H263.458C263.666 29.3717 263.77 29.6783 263.77 30.2916C263.77 30.9049 263.666 31.2116 263.458 31.2116H259.171ZM246.935 33.6587C246.739 33.6587 246.641 33.352 246.641 32.7387C246.641 32.1254 246.739 31.8188 246.935 31.8188H251.222C251.431 31.8188 251.535 32.1254 251.535 32.7387C251.535 33.352 251.431 33.6587 251.222 33.6587H246.935ZM259.171 33.6587C258.974 33.6587 258.876 33.352 258.876 32.7387C258.876 32.1254 258.974 31.8188 259.171 31.8188H263.458C263.666 31.8188 263.77 32.1254 263.77 32.7387C263.77 33.352 263.666 33.6587 263.458 33.6587H259.171ZM246.935 36.1058C246.739 36.1058 246.641 35.7991 246.641 35.1858C246.641 34.5725 246.739 34.2659 246.935 34.2659H263.458C263.666 34.2659 263.77 34.5725 263.77 35.1858C263.77 35.7991 263.666 36.1058 263.458 36.1058H246.935ZM246.935 38.5529C246.739 38.5529 246.641 38.2462 246.641 37.6329C246.641 37.0196 246.739 36.713 246.935 36.713H251.222C251.431 36.713 251.535 37.0196 251.535 37.6329C251.535 38.2462 251.431 38.5529 251.222 38.5529H246.935ZM259.171 38.5529C258.974 38.5529 258.876 38.2462 258.876 37.6329C258.876 37.0196 258.974 36.713 259.171 36.713H263.458C263.666 36.713 263.77 37.0196 263.77 37.6329C263.77 38.2462 263.666 38.5529 263.458 38.5529H259.171ZM246.935 41C246.739 41 246.641 40.6933 246.641 40.08C246.641 39.4667 246.739 39.1601 246.935 39.1601H251.222C251.431 39.1601 251.535 39.4667 251.535 40.08C251.535 40.6933 251.431 41 251.222 41H246.935ZM259.171 41C258.974 41 258.876 40.6933 258.876 40.08C258.876 39.4667 258.974 39.1601 259.171 39.1601H263.458C263.666 39.1601 263.77 39.4667 263.77 40.08C263.77 40.6933 263.666 41 263.458 41H259.171ZM268.952 26.3174C268.756 26.3174 268.658 26.0107 268.658 25.3974C268.658 24.7841 268.756 24.4775 268.952 24.4775H273.239C273.448 24.4775 273.552 24.7841 273.552 25.3974C273.552 26.0107 273.448 26.3174 273.239 26.3174H268.952ZM268.952 28.7645C268.756 28.7645 268.658 28.4578 268.658 27.8445C268.658 27.2312 268.756 26.9246 268.952 26.9246H273.239C273.448 26.9246 273.552 27.2312 273.552 27.8445C273.552 28.4578 273.448 28.7645 273.239 28.7645H268.952ZM268.952 31.2116C268.756 31.2116 268.658 30.9049 268.658 30.2916C268.658 29.6783 268.756 29.3717 268.952 29.3717H273.239C273.448 29.3717 273.552 29.6783 273.552 30.2916C273.552 30.9049 273.448 31.2116 273.239 31.2116H268.952ZM271.4 33.6587C271.203 33.6587 271.105 33.352 271.105 32.7387C271.105 32.1254 271.203 31.8188 271.4 31.8188H280.581C280.789 31.8188 280.894 32.1254 280.894 32.7387C280.894 33.352 280.789 33.6587 280.581 33.6587H271.4ZM278.741 26.3174C278.545 26.3174 278.446 26.0107 278.446 25.3974C278.446 24.7841 278.545 24.4775 278.741 24.4775H283.028C283.236 24.4775 283.341 24.7841 283.341 25.3974C283.341 26.0107 283.236 26.3174 283.028 26.3174H278.741ZM278.741 28.7645C278.545 28.7645 278.446 28.4578 278.446 27.8445C278.446 27.2312 278.545 26.9246 278.741 26.9246H283.028C283.236 26.9246 283.341 27.2312 283.341 27.8445C283.341 28.4578 283.236 28.7645 283.028 28.7645H278.741ZM273.847 36.1058C273.65 36.1058 273.552 35.7991 273.552 35.1858C273.552 34.5725 273.65 34.2659 273.847 34.2659H278.134C278.342 34.2659 278.446 34.5725 278.446 35.1858C278.446 35.7991 278.342 36.1058 278.134 36.1058H273.847ZM273.847 38.5529C273.65 38.5529 273.552 38.2462 273.552 37.6329C273.552 37.0196 273.65 36.713 273.847 36.713H278.134C278.342 36.713 278.446 37.0196 278.446 37.6329C278.446 38.2462 278.342 38.5529 278.134 38.5529H273.847ZM273.847 41C273.65 41 273.552 40.6933 273.552 40.08C273.552 39.4667 273.65 39.1601 273.847 39.1601H278.134C278.342 39.1601 278.446 39.4667 278.446 40.08C278.446 40.6933 278.342 41 278.134 41H273.847ZM278.741 31.2116C278.545 31.2116 278.446 30.9049 278.446 30.2916C278.446 29.6783 278.545 29.3717 278.741 29.3717H283.028C283.236 29.3717 283.341 29.6783 283.341 30.2916C283.341 30.9049 283.236 31.2116 283.028 31.2116H278.741ZM286.076 28.7645C285.879 28.7645 285.781 28.4578 285.781 27.8445C285.781 27.2312 285.879 26.9246 286.076 26.9246H290.363C290.571 26.9246 290.675 27.2312 290.675 27.8445C290.675 28.4578 290.571 28.7645 290.363 28.7645H286.076ZM286.076 26.3174C285.879 26.3174 285.781 26.0107 285.781 25.3974C285.781 24.7841 285.879 24.4775 286.076 24.4775H302.598C302.807 24.4775 302.911 24.7841 302.911 25.3974C302.911 26.0107 302.807 26.3174 302.598 26.3174H286.076ZM286.076 31.2116C285.879 31.2116 285.781 30.9049 285.781 30.2916C285.781 29.6783 285.879 29.3717 286.076 29.3717H290.363C290.571 29.3717 290.675 29.6783 290.675 30.2916C290.675 30.9049 290.571 31.2116 290.363 31.2116H286.076ZM286.076 36.1058C285.879 36.1058 285.781 35.7991 285.781 35.1858C285.781 34.5725 285.879 34.2659 286.076 34.2659H290.363C290.571 34.2659 290.675 34.5725 290.675 35.1858C290.675 35.7991 290.571 36.1058 290.363 36.1058H286.076ZM286.076 33.6587C285.879 33.6587 285.781 33.352 285.781 32.7387C285.781 32.1254 285.879 31.8188 286.076 31.8188H300.151C300.36 31.8188 300.464 32.1254 300.464 32.7387C300.464 33.352 300.36 33.6587 300.151 33.6587H286.076ZM286.076 38.5529C285.879 38.5529 285.781 38.2462 285.781 37.6329C285.781 37.0196 285.879 36.713 286.076 36.713H290.363C290.571 36.713 290.675 37.0196 290.675 37.6329C290.675 38.2462 290.571 38.5529 290.363 38.5529H286.076ZM286.076 41C285.879 41 285.781 40.6933 285.781 40.08C285.781 39.4667 285.879 39.1601 286.076 39.1601H302.598C302.807 39.1601 302.911 39.4667 302.911 40.08C302.911 40.6933 302.807 41 302.598 41H286.076ZM305.646 28.7645C305.45 28.7645 305.352 28.4578 305.352 27.8445C305.352 27.2312 305.45 26.9246 305.646 26.9246H309.933C310.142 26.9246 310.246 27.2312 310.246 27.8445C310.246 28.4578 310.142 28.7645 309.933 28.7645H305.646ZM317.881 28.7645C317.685 28.7645 317.587 28.4578 317.587 27.8445C317.587 27.2312 317.685 26.9246 317.881 26.9246H322.168C322.377 26.9246 322.481 27.2312 322.481 27.8445C322.481 28.4578 322.377 28.7645 322.168 28.7645H317.881ZM305.646 26.3174C305.45 26.3174 305.352 26.0107 305.352 25.3974C305.352 24.7841 305.45 24.4775 305.646 24.4775H319.721C319.93 24.4775 320.034 24.7841 320.034 25.3974C320.034 26.0107 319.93 26.3174 319.721 26.3174H305.646ZM305.646 31.2116C305.45 31.2116 305.352 30.9049 305.352 30.2916C305.352 29.6783 305.45 29.3717 305.646 29.3717H309.933C310.142 29.3717 310.246 29.6783 310.246 30.2916C310.246 30.9049 310.142 31.2116 309.933 31.2116H305.646ZM317.881 31.2116C317.685 31.2116 317.587 30.9049 317.587 30.2916C317.587 29.6783 317.685 29.3717 317.881 29.3717H322.168C322.377 29.3717 322.481 29.6783 322.481 30.2916C322.481 30.9049 322.377 31.2116 322.168 31.2116H317.881ZM305.646 36.1058C305.45 36.1058 305.352 35.7991 305.352 35.1858C305.352 34.5725 305.45 34.2659 305.646 34.2659H317.274C317.483 34.2659 317.587 34.5725 317.587 35.1858C317.587 35.7991 317.483 36.1058 317.274 36.1058H305.646ZM305.646 33.6587C305.45 33.6587 305.352 33.352 305.352 32.7387C305.352 32.1254 305.45 31.8188 305.646 31.8188H309.933C310.142 31.8188 310.246 32.1254 310.246 32.7387C310.246 33.352 310.142 33.6587 309.933 33.6587H305.646ZM305.646 38.5529C305.45 38.5529 305.352 38.2462 305.352 37.6329C305.352 37.0196 305.45 36.713 305.646 36.713H309.933C310.142 36.713 310.246 37.0196 310.246 37.6329C310.246 38.2462 310.142 38.5529 309.933 38.5529H305.646ZM312.987 38.5529C312.791 38.5529 312.693 38.2462 312.693 37.6329C312.693 37.0196 312.791 36.713 312.987 36.713H319.721C319.93 36.713 320.034 37.0196 320.034 37.6329C320.034 38.2462 319.93 38.5529 319.721 38.5529H312.987ZM305.646 41C305.45 41 305.352 40.6933 305.352 40.08C305.352 39.4667 305.45 39.1601 305.646 39.1601H309.933C310.142 39.1601 310.246 39.4667 310.246 40.08C310.246 40.6933 310.142 41 309.933 41H305.646ZM315.434 33.6587C315.238 33.6587 315.14 33.352 315.14 32.7387C315.14 32.1254 315.238 31.8188 315.434 31.8188H322.168C322.377 31.8188 322.481 32.1254 322.481 32.7387C322.481 33.352 322.377 33.6587 322.168 33.6587H315.434ZM315.434 41C315.238 41 315.14 40.6933 315.14 40.08C315.14 39.4667 315.238 39.1601 315.434 39.1601H322.168C322.377 39.1601 322.481 39.4667 322.481 40.08C322.481 40.6933 322.377 41 322.168 41H315.434Z" fill="white"/>
<path d="M90.3725 28.7645C90.1763 28.7645 90.0781 28.4578 90.0781 27.8445C90.0781 27.2312 90.1763 26.9246 90.3725 26.9246H97.1066C97.3152 26.9246 97.4194 27.2312 97.4194 27.8445C97.4194 28.4578 97.3152 28.7645 97.1066 28.7645H90.3725ZM90.3725 31.2116C90.1763 31.2116 90.0781 30.9049 90.0781 30.2916C90.0781 29.6783 90.1763 29.3717 90.3725 29.3717H106.895C107.104 29.3717 107.208 29.6783 107.208 30.2916C107.208 30.9049 107.104 31.2116 106.895 31.2116H90.3725ZM90.3725 36.1058C90.1763 36.1058 90.0781 35.7991 90.0781 35.1858C90.0781 34.5725 90.1763 34.2659 90.3725 34.2659H94.6595C94.8681 34.2659 94.9723 34.5725 94.9723 35.1858C94.9723 35.7991 94.8681 36.1058 94.6595 36.1058H90.3725ZM90.3725 38.5529C90.1763 38.5529 90.0781 38.2462 90.0781 37.6329C90.0781 37.0196 90.1763 36.713 90.3725 36.713H94.6595C94.8681 36.713 94.9723 37.0196 94.9723 37.6329C94.9723 38.2462 94.8681 38.5529 94.6595 38.5529H90.3725ZM90.3725 26.3174C90.1763 26.3174 90.0781 26.0107 90.0781 25.3974C90.0781 24.7841 90.1763 24.4775 90.3725 24.4775H94.6595C94.8681 24.4775 94.9723 24.7841 94.9723 25.3974C94.9723 26.0107 94.8681 26.3174 94.6595 26.3174H90.3725ZM90.3725 41C90.1763 41 90.0781 40.6933 90.0781 40.08C90.0781 39.4667 90.1763 39.1601 90.3725 39.1601H94.6595C94.8681 39.1601 94.9723 39.4667 94.9723 40.08C94.9723 40.6933 94.8681 41 94.6595 41H90.3725ZM100.161 28.7645C99.9647 28.7645 99.8665 28.4578 99.8665 27.8445C99.8665 27.2312 99.9647 26.9246 100.161 26.9246H106.895C107.104 26.9246 107.208 27.2312 107.208 27.8445C107.208 28.4578 107.104 28.7645 106.895 28.7645H100.161ZM102.608 36.1058C102.412 36.1058 102.314 35.7991 102.314 35.1858C102.314 34.5725 102.412 34.2659 102.608 34.2659H106.895C107.104 34.2659 107.208 34.5725 107.208 35.1858C107.208 35.7991 107.104 36.1058 106.895 36.1058H102.608ZM102.608 38.5529C102.412 38.5529 102.314 38.2462 102.314 37.6329C102.314 37.0196 102.412 36.713 102.608 36.713H106.895C107.104 36.713 107.208 37.0196 107.208 37.6329C107.208 38.2462 107.104 38.5529 106.895 38.5529H102.608ZM102.608 26.3174C102.412 26.3174 102.314 26.0107 102.314 25.3974C102.314 24.7841 102.412 24.4775 102.608 24.4775H106.895C107.104 24.4775 107.208 24.7841 107.208 25.3974C107.208 26.0107 107.104 26.3174 106.895 26.3174H102.608ZM102.608 41C102.412 41 102.314 40.6933 102.314 40.08C102.314 39.4667 102.412 39.1601 102.608 39.1601H106.895C107.104 39.1601 107.208 39.4667 107.208 40.08C107.208 40.6933 107.104 41 106.895 41H102.608ZM97.7138 36.1058C97.5176 36.1058 97.4194 35.7991 97.4194 35.1858C97.4194 34.5725 97.5176 34.2659 97.7138 34.2659H99.5537C99.7623 34.2659 99.8665 34.5725 99.8665 35.1858C99.8665 35.7991 99.7623 36.1058 99.5537 36.1058H97.7138ZM90.3725 33.6587C90.1763 33.6587 90.0781 33.352 90.0781 32.7387C90.0781 32.1254 90.1763 31.8188 90.3725 31.8188H106.895C107.104 31.8188 107.208 32.1254 107.208 32.7387C107.208 33.352 107.104 33.6587 106.895 33.6587H90.3725ZM109.943 26.3174C109.747 26.3174 109.648 26.0107 109.648 25.3974C109.648 24.7841 109.747 24.4775 109.943 24.4775H114.23C114.438 24.4775 114.543 24.7841 114.543 25.3974C114.543 26.0107 114.438 26.3174 114.23 26.3174H109.943ZM112.39 41C112.194 41 112.096 40.6933 112.096 40.08C112.096 39.4667 112.194 39.1601 112.39 39.1601H124.018C124.227 39.1601 124.331 39.4667 124.331 40.08C124.331 40.6933 124.227 41 124.018 41H112.39ZM109.943 28.7645C109.747 28.7645 109.648 28.4578 109.648 27.8445C109.648 27.2312 109.747 26.9246 109.943 26.9246H114.23C114.438 26.9246 114.543 27.2312 114.543 27.8445C114.543 28.4578 114.438 28.7645 114.23 28.7645H109.943ZM109.943 36.1058C109.747 36.1058 109.648 35.7991 109.648 35.1858C109.648 34.5725 109.747 34.2659 109.943 34.2659H114.23C114.438 34.2659 114.543 34.5725 114.543 35.1858C114.543 35.7991 114.438 36.1058 114.23 36.1058H109.943ZM109.943 38.5529C109.747 38.5529 109.648 38.2462 109.648 37.6329C109.648 37.0196 109.747 36.713 109.943 36.713H114.23C114.438 36.713 114.543 37.0196 114.543 37.6329C114.543 38.2462 114.438 38.5529 114.23 38.5529H109.943ZM109.943 31.2116C109.747 31.2116 109.648 30.9049 109.648 30.2916C109.648 29.6783 109.747 29.3717 109.943 29.3717H114.23C114.438 29.3717 114.543 29.6783 114.543 30.2916C114.543 30.9049 114.438 31.2116 114.23 31.2116H109.943ZM109.943 33.6587C109.747 33.6587 109.648 33.352 109.648 32.7387C109.648 32.1254 109.747 31.8188 109.943 31.8188H114.23C114.438 31.8188 114.543 32.1254 114.543 32.7387C114.543 33.352 114.438 33.6587 114.23 33.6587H109.943ZM122.178 26.3174C121.982 26.3174 121.884 26.0107 121.884 25.3974C121.884 24.7841 121.982 24.4775 122.178 24.4775H126.465C126.674 24.4775 126.778 24.7841 126.778 25.3974C126.778 26.0107 126.674 26.3174 126.465 26.3174H122.178ZM122.178 28.7645C121.982 28.7645 121.884 28.4578 121.884 27.8445C121.884 27.2312 121.982 26.9246 122.178 26.9246H126.465C126.674 26.9246 126.778 27.2312 126.778 27.8445C126.778 28.4578 126.674 28.7645 126.465 28.7645H122.178ZM122.178 36.1058C121.982 36.1058 121.884 35.7991 121.884 35.1858C121.884 34.5725 121.982 34.2659 122.178 34.2659H126.465C126.674 34.2659 126.778 34.5725 126.778 35.1858C126.778 35.7991 126.674 36.1058 126.465 36.1058H122.178ZM122.178 38.5529C121.982 38.5529 121.884 38.2462 121.884 37.6329C121.884 37.0196 121.982 36.713 122.178 36.713H126.465C126.674 36.713 126.778 37.0196 126.778 37.6329C126.778 38.2462 126.674 38.5529 126.465 38.5529H122.178ZM122.178 31.2116C121.982 31.2116 121.884 30.9049 121.884 30.2916C121.884 29.6783 121.982 29.3717 122.178 29.3717H126.465C126.674 29.3717 126.778 29.6783 126.778 30.2916C126.778 30.9049 126.674 31.2116 126.465 31.2116H122.178ZM122.178 33.6587C121.982 33.6587 121.884 33.352 121.884 32.7387C121.884 32.1254 121.982 31.8188 122.178 31.8188H126.465C126.674 31.8188 126.778 32.1254 126.778 32.7387C126.778 33.352 126.674 33.6587 126.465 33.6587H122.178ZM129.513 28.7645C129.317 28.7645 129.219 28.4578 129.219 27.8445C129.219 27.2312 129.317 26.9246 129.513 26.9246H133.8C134.009 26.9246 134.113 27.2312 134.113 27.8445C134.113 28.4578 134.009 28.7645 133.8 28.7645H129.513ZM129.513 26.3174C129.317 26.3174 129.219 26.0107 129.219 25.3974C129.219 24.7841 129.317 24.4775 129.513 24.4775H133.8C134.009 24.4775 134.113 24.7841 134.113 25.3974C134.113 26.0107 134.009 26.3174 133.8 26.3174H129.513ZM129.513 31.2116C129.317 31.2116 129.219 30.9049 129.219 30.2916C129.219 29.6783 129.317 29.3717 129.513 29.3717H133.8C134.009 29.3717 134.113 29.6783 134.113 30.2916C134.113 30.9049 134.009 31.2116 133.8 31.2116H129.513ZM129.513 36.1058C129.317 36.1058 129.219 35.7991 129.219 35.1858C129.219 34.5725 129.317 34.2659 129.513 34.2659H133.8C134.009 34.2659 134.113 34.5725 134.113 35.1858C134.113 35.7991 134.009 36.1058 133.8 36.1058H129.513ZM129.513 33.6587C129.317 33.6587 129.219 33.352 129.219 32.7387C129.219 32.1254 129.317 31.8188 129.513 31.8188H133.8C134.009 31.8188 134.113 32.1254 134.113 32.7387C134.113 33.352 134.009 33.6587 133.8 33.6587H129.513ZM129.513 38.5529C129.317 38.5529 129.219 38.2462 129.219 37.6329C129.219 37.0196 129.317 36.713 129.513 36.713H133.8C134.009 36.713 134.113 37.0196 134.113 37.6329C134.113 38.2462 134.009 38.5529 133.8 38.5529H129.513ZM129.513 41C129.317 41 129.219 40.6933 129.219 40.08C129.219 39.4667 129.317 39.1601 129.513 39.1601H146.036C146.244 39.1601 146.348 39.4667 146.348 40.08C146.348 40.6933 146.244 41 146.036 41H129.513ZM156.425 28.7645C156.228 28.7645 156.13 28.4578 156.13 27.8445C156.13 27.2312 156.228 26.9246 156.425 26.9246H160.712C160.92 26.9246 161.025 27.2312 161.025 27.8445C161.025 28.4578 160.92 28.7645 160.712 28.7645H156.425ZM151.531 26.3174C151.334 26.3174 151.236 26.0107 151.236 25.3974C151.236 24.7841 151.334 24.4775 151.531 24.4775H165.606C165.815 24.4775 165.919 24.7841 165.919 25.3974C165.919 26.0107 165.815 26.3174 165.606 26.3174H151.531ZM156.425 31.2116C156.228 31.2116 156.13 30.9049 156.13 30.2916C156.13 29.6783 156.228 29.3717 156.425 29.3717H160.712C160.92 29.3717 161.025 29.6783 161.025 30.2916C161.025 30.9049 160.92 31.2116 160.712 31.2116H156.425ZM156.425 38.5529C156.228 38.5529 156.13 38.2462 156.13 37.6329C156.13 37.0196 156.228 36.713 156.425 36.713H160.712C160.92 36.713 161.025 37.0196 161.025 37.6329C161.025 38.2462 160.92 38.5529 160.712 38.5529H156.425ZM156.425 41C156.228 41 156.13 40.6933 156.13 40.08C156.13 39.4667 156.228 39.1601 156.425 39.1601H160.712C160.92 39.1601 161.025 39.4667 161.025 40.08C161.025 40.6933 160.92 41 160.712 41H156.425ZM156.425 33.6587C156.228 33.6587 156.13 33.352 156.13 32.7387C156.13 32.1254 156.228 31.8188 156.425 31.8188H160.712C160.92 31.8188 161.025 32.1254 161.025 32.7387C161.025 33.352 160.92 33.6587 160.712 33.6587H156.425ZM156.425 36.1058C156.228 36.1058 156.13 35.7991 156.13 35.1858C156.13 34.5725 156.228 34.2659 156.425 34.2659H160.712C160.92 34.2659 161.025 34.5725 161.025 35.1858C161.025 35.7991 160.92 36.1058 160.712 36.1058H156.425ZM171.101 26.3174C170.905 26.3174 170.806 26.0107 170.806 25.3974C170.806 24.7841 170.905 24.4775 171.101 24.4775H185.176C185.385 24.4775 185.489 24.7841 185.489 25.3974C185.489 26.0107 185.385 26.3174 185.176 26.3174H171.101ZM175.995 28.7645C175.799 28.7645 175.701 28.4578 175.701 27.8445C175.701 27.2312 175.799 26.9246 175.995 26.9246H180.282C180.491 26.9246 180.595 27.2312 180.595 27.8445C180.595 28.4578 180.491 28.7645 180.282 28.7645H175.995ZM175.995 31.2116C175.799 31.2116 175.701 30.9049 175.701 30.2916C175.701 29.6783 175.799 29.3717 175.995 29.3717H180.282C180.491 29.3717 180.595 29.6783 180.595 30.2916C180.595 30.9049 180.491 31.2116 180.282 31.2116H175.995ZM175.995 33.6587C175.799 33.6587 175.701 33.352 175.701 32.7387C175.701 32.1254 175.799 31.8188 175.995 31.8188H180.282C180.491 31.8188 180.595 32.1254 180.595 32.7387C180.595 33.352 180.491 33.6587 180.282 33.6587H175.995ZM175.995 36.1058C175.799 36.1058 175.701 35.7991 175.701 35.1858C175.701 34.5725 175.799 34.2659 175.995 34.2659H180.282C180.491 34.2659 180.595 34.5725 180.595 35.1858C180.595 35.7991 180.491 36.1058 180.282 36.1058H175.995ZM175.995 38.5529C175.799 38.5529 175.701 38.2462 175.701 37.6329C175.701 37.0196 175.799 36.713 175.995 36.713H180.282C180.491 36.713 180.595 37.0196 180.595 37.6329C180.595 38.2462 180.491 38.5529 180.282 38.5529H175.995ZM171.101 41C170.905 41 170.806 40.6933 170.806 40.08C170.806 39.4667 170.905 39.1601 171.101 39.1601H185.176C185.385 39.1601 185.489 39.4667 185.489 40.08C185.489 40.6933 185.385 41 185.176 41H171.101ZM207.794 28.7645C207.598 28.7645 207.5 28.4578 207.5 27.8445C207.5 27.2312 207.598 26.9246 207.794 26.9246H212.081C212.29 26.9246 212.394 27.2312 212.394 27.8445C212.394 28.4578 212.29 28.7645 212.081 28.7645H207.794ZM220.03 28.7645C219.834 28.7645 219.736 28.4578 219.736 27.8445C219.736 27.2312 219.834 26.9246 220.03 26.9246H224.317C224.525 26.9246 224.63 27.2312 224.63 27.8445C224.63 28.4578 224.525 28.7645 224.317 28.7645H220.03ZM207.794 26.3174C207.598 26.3174 207.5 26.0107 207.5 25.3974C207.5 24.7841 207.598 24.4775 207.794 24.4775H221.87C222.078 24.4775 222.183 24.7841 222.183 25.3974C222.183 26.0107 222.078 26.3174 221.87 26.3174H207.794ZM207.794 31.2116C207.598 31.2116 207.5 30.9049 207.5 30.2916C207.5 29.6783 207.598 29.3717 207.794 29.3717H212.081C212.29 29.3717 212.394 29.6783 212.394 30.2916C212.394 30.9049 212.29 31.2116 212.081 31.2116H207.794ZM220.03 31.2116C219.834 31.2116 219.736 30.9049 219.736 30.2916C219.736 29.6783 219.834 29.3717 220.03 29.3717H224.317C224.525 29.3717 224.63 29.6783 224.63 30.2916C224.63 30.9049 224.525 31.2116 224.317 31.2116H220.03ZM207.794 36.1058C207.598 36.1058 207.5 35.7991 207.5 35.1858C207.5 34.5725 207.598 34.2659 207.794 34.2659H221.87C222.078 34.2659 222.183 34.5725 222.183 35.1858C222.183 35.7991 222.078 36.1058 221.87 36.1058H207.794ZM207.794 33.6587C207.598 33.6587 207.5 33.352 207.5 32.7387C207.5 32.1254 207.598 31.8188 207.794 31.8188H212.081C212.29 31.8188 212.394 32.1254 212.394 32.7387C212.394 33.352 212.29 33.6587 212.081 33.6587H207.794ZM207.794 38.5529C207.598 38.5529 207.5 38.2462 207.5 37.6329C207.5 37.0196 207.598 36.713 207.794 36.713H212.081C212.29 36.713 212.394 37.0196 212.394 37.6329C212.394 38.2462 212.29 38.5529 212.081 38.5529H207.794ZM207.794 41C207.598 41 207.5 40.6933 207.5 40.08C207.5 39.4667 207.598 39.1601 207.794 39.1601H212.081C212.29 39.1601 212.394 39.4667 212.394 40.08C212.394 40.6933 212.29 41 212.081 41H207.794ZM220.03 33.6587C219.834 33.6587 219.736 33.352 219.736 32.7387C219.736 32.1254 219.834 31.8188 220.03 31.8188H224.317C224.525 31.8188 224.63 32.1254 224.63 32.7387C224.63 33.352 224.525 33.6587 224.317 33.6587H220.03ZM227.365 28.7645C227.168 28.7645 227.07 28.4578 227.07 27.8445C227.07 27.2312 227.168 26.9246 227.365 26.9246H231.652C231.86 26.9246 231.965 27.2312 231.965 27.8445C231.965 28.4578 231.86 28.7645 231.652 28.7645H227.365ZM227.365 26.3174C227.168 26.3174 227.07 26.0107 227.07 25.3974C227.07 24.7841 227.168 24.4775 227.365 24.4775H231.652C231.86 24.4775 231.965 24.7841 231.965 25.3974C231.965 26.0107 231.86 26.3174 231.652 26.3174H227.365ZM227.365 31.2116C227.168 31.2116 227.07 30.9049 227.07 30.2916C227.07 29.6783 227.168 29.3717 227.365 29.3717H231.652C231.86 29.3717 231.965 29.6783 231.965 30.2916C231.965 30.9049 231.86 31.2116 231.652 31.2116H227.365ZM227.365 36.1058C227.168 36.1058 227.07 35.7991 227.07 35.1858C227.07 34.5725 227.168 34.2659 227.365 34.2659H231.652C231.86 34.2659 231.965 34.5725 231.965 35.1858C231.965 35.7991 231.86 36.1058 231.652 36.1058H227.365ZM227.365 33.6587C227.168 33.6587 227.07 33.352 227.07 32.7387C227.07 32.1254 227.168 31.8188 227.365 31.8188H231.652C231.86 31.8188 231.965 32.1254 231.965 32.7387C231.965 33.352 231.86 33.6587 231.652 33.6587H227.365ZM227.365 38.5529C227.168 38.5529 227.07 38.2462 227.07 37.6329C227.07 37.0196 227.168 36.713 227.365 36.713H231.652C231.86 36.713 231.965 37.0196 231.965 37.6329C231.965 38.2462 231.86 38.5529 231.652 38.5529H227.365ZM227.365 41C227.168 41 227.07 40.6933 227.07 40.08C227.07 39.4667 227.168 39.1601 227.365 39.1601H243.887C244.096 39.1601 244.2 39.4667 244.2 40.08C244.2 40.6933 244.096 41 243.887 41H227.365ZM249.382 28.7645C249.186 28.7645 249.088 28.4578 249.088 27.8445C249.088 27.2312 249.186 26.9246 249.382 26.9246H253.669C253.878 26.9246 253.982 27.2312 253.982 27.8445C253.982 28.4578 253.878 28.7645 253.669 28.7645H249.382ZM256.723 28.7645C256.527 28.7645 256.429 28.4578 256.429 27.8445C256.429 27.2312 256.527 26.9246 256.723 26.9246H261.01C261.219 26.9246 261.323 27.2312 261.323 27.8445C261.323 28.4578 261.219 28.7645 261.01 28.7645H256.723ZM251.829 26.3174C251.633 26.3174 251.535 26.0107 251.535 25.3974C251.535 24.7841 251.633 24.4775 251.829 24.4775H258.563C258.772 24.4775 258.876 24.7841 258.876 25.3974C258.876 26.0107 258.772 26.3174 258.563 26.3174H251.829ZM246.935 31.2116C246.739 31.2116 246.641 30.9049 246.641 30.2916C246.641 29.6783 246.739 29.3717 246.935 29.3717H251.222C251.431 29.3717 251.535 29.6783 251.535 30.2916C251.535 30.9049 251.431 31.2116 251.222 31.2116H246.935ZM259.171 31.2116C258.974 31.2116 258.876 30.9049 258.876 30.2916C258.876 29.6783 258.974 29.3717 259.171 29.3717H263.458C263.666 29.3717 263.77 29.6783 263.77 30.2916C263.77 30.9049 263.666 31.2116 263.458 31.2116H259.171ZM246.935 33.6587C246.739 33.6587 246.641 33.352 246.641 32.7387C246.641 32.1254 246.739 31.8188 246.935 31.8188H251.222C251.431 31.8188 251.535 32.1254 251.535 32.7387C251.535 33.352 251.431 33.6587 251.222 33.6587H246.935ZM259.171 33.6587C258.974 33.6587 258.876 33.352 258.876 32.7387C258.876 32.1254 258.974 31.8188 259.171 31.8188H263.458C263.666 31.8188 263.77 32.1254 263.77 32.7387C263.77 33.352 263.666 33.6587 263.458 33.6587H259.171ZM246.935 36.1058C246.739 36.1058 246.641 35.7991 246.641 35.1858C246.641 34.5725 246.739 34.2659 246.935 34.2659H263.458C263.666 34.2659 263.77 34.5725 263.77 35.1858C263.77 35.7991 263.666 36.1058 263.458 36.1058H246.935ZM246.935 38.5529C246.739 38.5529 246.641 38.2462 246.641 37.6329C246.641 37.0196 246.739 36.713 246.935 36.713H251.222C251.431 36.713 251.535 37.0196 251.535 37.6329C251.535 38.2462 251.431 38.5529 251.222 38.5529H246.935ZM259.171 38.5529C258.974 38.5529 258.876 38.2462 258.876 37.6329C258.876 37.0196 258.974 36.713 259.171 36.713H263.458C263.666 36.713 263.77 37.0196 263.77 37.6329C263.77 38.2462 263.666 38.5529 263.458 38.5529H259.171ZM246.935 41C246.739 41 246.641 40.6933 246.641 40.08C246.641 39.4667 246.739 39.1601 246.935 39.1601H251.222C251.431 39.1601 251.535 39.4667 251.535 40.08C251.535 40.6933 251.431 41 251.222 41H246.935ZM259.171 41C258.974 41 258.876 40.6933 258.876 40.08C258.876 39.4667 258.974 39.1601 259.171 39.1601H263.458C263.666 39.1601 263.77 39.4667 263.77 40.08C263.77 40.6933 263.666 41 263.458 41H259.171ZM268.952 26.3174C268.756 26.3174 268.658 26.0107 268.658 25.3974C268.658 24.7841 268.756 24.4775 268.952 24.4775H273.239C273.448 24.4775 273.552 24.7841 273.552 25.3974C273.552 26.0107 273.448 26.3174 273.239 26.3174H268.952ZM268.952 28.7645C268.756 28.7645 268.658 28.4578 268.658 27.8445C268.658 27.2312 268.756 26.9246 268.952 26.9246H273.239C273.448 26.9246 273.552 27.2312 273.552 27.8445C273.552 28.4578 273.448 28.7645 273.239 28.7645H268.952ZM268.952 31.2116C268.756 31.2116 268.658 30.9049 268.658 30.2916C268.658 29.6783 268.756 29.3717 268.952 29.3717H273.239C273.448 29.3717 273.552 29.6783 273.552 30.2916C273.552 30.9049 273.448 31.2116 273.239 31.2116H268.952ZM271.4 33.6587C271.203 33.6587 271.105 33.352 271.105 32.7387C271.105 32.1254 271.203 31.8188 271.4 31.8188H280.581C280.789 31.8188 280.894 32.1254 280.894 32.7387C280.894 33.352 280.789 33.6587 280.581 33.6587H271.4ZM278.741 26.3174C278.545 26.3174 278.446 26.0107 278.446 25.3974C278.446 24.7841 278.545 24.4775 278.741 24.4775H283.028C283.236 24.4775 283.341 24.7841 283.341 25.3974C283.341 26.0107 283.236 26.3174 283.028 26.3174H278.741ZM278.741 28.7645C278.545 28.7645 278.446 28.4578 278.446 27.8445C278.446 27.2312 278.545 26.9246 278.741 26.9246H283.028C283.236 26.9246 283.341 27.2312 283.341 27.8445C283.341 28.4578 283.236 28.7645 283.028 28.7645H278.741ZM273.847 36.1058C273.65 36.1058 273.552 35.7991 273.552 35.1858C273.552 34.5725 273.65 34.2659 273.847 34.2659H278.134C278.342 34.2659 278.446 34.5725 278.446 35.1858C278.446 35.7991 278.342 36.1058 278.134 36.1058H273.847ZM273.847 38.5529C273.65 38.5529 273.552 38.2462 273.552 37.6329C273.552 37.0196 273.65 36.713 273.847 36.713H278.134C278.342 36.713 278.446 37.0196 278.446 37.6329C278.446 38.2462 278.342 38.5529 278.134 38.5529H273.847ZM273.847 41C273.65 41 273.552 40.6933 273.552 40.08C273.552 39.4667 273.65 39.1601 273.847 39.1601H278.134C278.342 39.1601 278.446 39.4667 278.446 40.08C278.446 40.6933 278.342 41 278.134 41H273.847ZM278.741 31.2116C278.545 31.2116 278.446 30.9049 278.446 30.2916C278.446 29.6783 278.545 29.3717 278.741 29.3717H283.028C283.236 29.3717 283.341 29.6783 283.341 30.2916C283.341 30.9049 283.236 31.2116 283.028 31.2116H278.741ZM286.076 28.7645C285.879 28.7645 285.781 28.4578 285.781 27.8445C285.781 27.2312 285.879 26.9246 286.076 26.9246H290.363C290.571 26.9246 290.675 27.2312 290.675 27.8445C290.675 28.4578 290.571 28.7645 290.363 28.7645H286.076ZM286.076 26.3174C285.879 26.3174 285.781 26.0107 285.781 25.3974C285.781 24.7841 285.879 24.4775 286.076 24.4775H302.598C302.807 24.4775 302.911 24.7841 302.911 25.3974C302.911 26.0107 302.807 26.3174 302.598 26.3174H286.076ZM286.076 31.2116C285.879 31.2116 285.781 30.9049 285.781 30.2916C285.781 29.6783 285.879 29.3717 286.076 29.3717H290.363C290.571 29.3717 290.675 29.6783 290.675 30.2916C290.675 30.9049 290.571 31.2116 290.363 31.2116H286.076ZM286.076 36.1058C285.879 36.1058 285.781 35.7991 285.781 35.1858C285.781 34.5725 285.879 34.2659 286.076 34.2659H290.363C290.571 34.2659 290.675 34.5725 290.675 35.1858C290.675 35.7991 290.571 36.1058 290.363 36.1058H286.076ZM286.076 33.6587C285.879 33.6587 285.781 33.352 285.781 32.7387C285.781 32.1254 285.879 31.8188 286.076 31.8188H300.151C300.36 31.8188 300.464 32.1254 300.464 32.7387C300.464 33.352 300.36 33.6587 300.151 33.6587H286.076ZM286.076 38.5529C285.879 38.5529 285.781 38.2462 285.781 37.6329C285.781 37.0196 285.879 36.713 286.076 36.713H290.363C290.571 36.713 290.675 37.0196 290.675 37.6329C290.675 38.2462 290.571 38.5529 290.363 38.5529H286.076ZM286.076 41C285.879 41 285.781 40.6933 285.781 40.08C285.781 39.4667 285.879 39.1601 286.076 39.1601H302.598C302.807 39.1601 302.911 39.4667 302.911 40.08C302.911 40.6933 302.807 41 302.598 41H286.076ZM305.646 28.7645C305.45 28.7645 305.352 28.4578 305.352 27.8445C305.352 27.2312 305.45 26.9246 305.646 26.9246H309.933C310.142 26.9246 310.246 27.2312 310.246 27.8445C310.246 28.4578 310.142 28.7645 309.933 28.7645H305.646ZM317.881 28.7645C317.685 28.7645 317.587 28.4578 317.587 27.8445C317.587 27.2312 317.685 26.9246 317.881 26.9246H322.168C322.377 26.9246 322.481 27.2312 322.481 27.8445C322.481 28.4578 322.377 28.7645 322.168 28.7645H317.881ZM305.646 26.3174C305.45 26.3174 305.352 26.0107 305.352 25.3974C305.352 24.7841 305.45 24.4775 305.646 24.4775H319.721C319.93 24.4775 320.034 24.7841 320.034 25.3974C320.034 26.0107 319.93 26.3174 319.721 26.3174H305.646ZM305.646 31.2116C305.45 31.2116 305.352 30.9049 305.352 30.2916C305.352 29.6783 305.45 29.3717 305.646 29.3717H309.933C310.142 29.3717 310.246 29.6783 310.246 30.2916C310.246 30.9049 310.142 31.2116 309.933 31.2116H305.646ZM317.881 31.2116C317.685 31.2116 317.587 30.9049 317.587 30.2916C317.587 29.6783 317.685 29.3717 317.881 29.3717H322.168C322.377 29.3717 322.481 29.6783 322.481 30.2916C322.481 30.9049 322.377 31.2116 322.168 31.2116H317.881ZM305.646 36.1058C305.45 36.1058 305.352 35.7991 305.352 35.1858C305.352 34.5725 305.45 34.2659 305.646 34.2659H317.274C317.483 34.2659 317.587 34.5725 317.587 35.1858C317.587 35.7991 317.483 36.1058 317.274 36.1058H305.646ZM305.646 33.6587C305.45 33.6587 305.352 33.352 305.352 32.7387C305.352 32.1254 305.45 31.8188 305.646 31.8188H309.933C310.142 31.8188 310.246 32.1254 310.246 32.7387C310.246 33.352 310.142 33.6587 309.933 33.6587H305.646ZM305.646 38.5529C305.45 38.5529 305.352 38.2462 305.352 37.6329C305.352 37.0196 305.45 36.713 305.646 36.713H309.933C310.142 36.713 310.246 37.0196 310.246 37.6329C310.246 38.2462 310.142 38.5529 309.933 38.5529H305.646ZM312.987 38.5529C312.791 38.5529 312.693 38.2462 312.693 37.6329C312.693 37.0196 312.791 36.713 312.987 36.713H319.721C319.93 36.713 320.034 37.0196 320.034 37.6329C320.034 38.2462 319.93 38.5529 319.721 38.5529H312.987ZM305.646 41C305.45 41 305.352 40.6933 305.352 40.08C305.352 39.4667 305.45 39.1601 305.646 39.1601H309.933C310.142 39.1601 310.246 39.4667 310.246 40.08C310.246 40.6933 310.142 41 309.933 41H305.646ZM315.434 33.6587C315.238 33.6587 315.14 33.352 315.14 32.7387C315.14 32.1254 315.238 31.8188 315.434 31.8188H322.168C322.377 31.8188 322.481 32.1254 322.481 32.7387C322.481 33.352 322.377 33.6587 322.168 33.6587H315.434ZM315.434 41C315.238 41 315.14 40.6933 315.14 40.08C315.14 39.4667 315.238 39.1601 315.434 39.1601H322.168C322.377 39.1601 322.481 39.4667 322.481 40.08C322.481 40.6933 322.377 41 322.168 41H315.434Z" fill="white"/>
</svg>
