<svg width="70" height="71" viewBox="0 0 70 71" fill="none" xmlns="http://www.w3.org/2000/svg">
<path d="M69.584 35.2832C69.584 42.4447 68.1354 48.7109 65.2383 54.082C62.3737 59.4206 58.321 63.571 53.0801 66.5332C47.8717 69.4954 41.752 70.9766 34.7207 70.9766C27.5267 70.9766 21.3418 69.5443 16.166 66.6797C10.9902 63.7826 7.01888 59.6647 4.25195 54.3262C1.48503 48.9876 0.101562 42.64 0.101562 35.2832C0.101562 27.9264 1.46875 21.6276 4.20312 16.3867C6.97005 11.1458 10.9414 7.14193 16.1172 4.375C21.3255 1.57552 27.5592 0.175781 34.8184 0.175781C42.11 0.175781 48.3438 1.5918 53.5195 4.42383C58.6953 7.22331 62.6667 11.2435 65.4336 16.4844C68.2005 21.7253 69.584 27.9915 69.584 35.2832ZM54.8867 35.2832C54.8867 27.8613 53.1289 22.0508 49.6133 17.8516C46.0977 13.6198 41.166 11.5039 34.8184 11.5039C28.373 11.5039 23.3926 13.6035 19.877 17.8027C16.3613 21.9694 14.6035 27.7962 14.6035 35.2832C14.6035 40.2962 15.4173 44.6257 17.0449 48.2715C18.6725 51.9173 20.9837 54.7331 23.9785 56.7188C27.0059 58.6719 30.5866 59.6484 34.7207 59.6484C41.166 59.6484 46.1302 57.5326 49.6133 53.3008C53.1289 49.069 54.8867 43.0632 54.8867 35.2832Z" fill="#B27AF4"/>
</svg>
