<svg width="415" height="72" viewBox="0 0 415 72" fill="none" xmlns="http://www.w3.org/2000/svg">
<rect x="60" width="296" height="66" fill="#E2D1F2"/>
<rect x="60" width="296" height="66" fill="#E2D1F2"/>
<rect x="68" y="8" width="280" height="50" fill="#B27AF4"/>
<rect x="68" y="8" width="280" height="50" fill="#B27AF4"/>
<path d="M149.083 28.7645C148.887 28.7645 148.789 28.4578 148.789 27.8445C148.789 27.2312 148.887 26.9246 149.083 26.9246H153.37C153.579 26.9246 153.683 27.2312 153.683 27.8445C153.683 28.4578 153.579 28.7645 153.37 28.7645H149.083ZM161.319 28.7645C161.123 28.7645 161.025 28.4578 161.025 27.8445C161.025 27.2312 161.123 26.9246 161.319 26.9246H165.606C165.815 26.9246 165.919 27.2312 165.919 27.8445C165.919 28.4578 165.815 28.7645 165.606 28.7645H161.319ZM149.083 26.3174C148.887 26.3174 148.789 26.0107 148.789 25.3974C148.789 24.7841 148.887 24.4775 149.083 24.4775H163.159C163.367 24.4775 163.472 24.7841 163.472 25.3974C163.472 26.0107 163.367 26.3174 163.159 26.3174H149.083ZM149.083 31.2116C148.887 31.2116 148.789 30.9049 148.789 30.2916C148.789 29.6783 148.887 29.3717 149.083 29.3717H153.37C153.579 29.3717 153.683 29.6783 153.683 30.2916C153.683 30.9049 153.579 31.2116 153.37 31.2116H149.083ZM161.319 31.2116C161.123 31.2116 161.025 30.9049 161.025 30.2916C161.025 29.6783 161.123 29.3717 161.319 29.3717H165.606C165.815 29.3717 165.919 29.6783 165.919 30.2916C165.919 30.9049 165.815 31.2116 165.606 31.2116H161.319ZM149.083 36.1058C148.887 36.1058 148.789 35.7991 148.789 35.1858C148.789 34.5725 148.887 34.2659 149.083 34.2659H160.712C160.92 34.2659 161.025 34.5725 161.025 35.1858C161.025 35.7991 160.92 36.1058 160.712 36.1058H149.083ZM149.083 33.6587C148.887 33.6587 148.789 33.352 148.789 32.7387C148.789 32.1254 148.887 31.8188 149.083 31.8188H153.37C153.579 31.8188 153.683 32.1254 153.683 32.7387C153.683 33.352 153.579 33.6587 153.37 33.6587H149.083ZM149.083 38.5529C148.887 38.5529 148.789 38.2462 148.789 37.6329C148.789 37.0196 148.887 36.713 149.083 36.713H153.37C153.579 36.713 153.683 37.0196 153.683 37.6329C153.683 38.2462 153.579 38.5529 153.37 38.5529H149.083ZM156.425 38.5529C156.228 38.5529 156.13 38.2462 156.13 37.6329C156.13 37.0196 156.228 36.713 156.425 36.713H163.159C163.367 36.713 163.472 37.0196 163.472 37.6329C163.472 38.2462 163.367 38.5529 163.159 38.5529H156.425ZM149.083 41C148.887 41 148.789 40.6933 148.789 40.08C148.789 39.4667 148.887 39.1601 149.083 39.1601H153.37C153.579 39.1601 153.683 39.4667 153.683 40.08C153.683 40.6933 153.579 41 153.37 41H149.083ZM158.872 33.6587C158.676 33.6587 158.577 33.352 158.577 32.7387C158.577 32.1254 158.676 31.8188 158.872 31.8188H165.606C165.815 31.8188 165.919 32.1254 165.919 32.7387C165.919 33.352 165.815 33.6587 165.606 33.6587H158.872ZM158.872 41C158.676 41 158.577 40.6933 158.577 40.08C158.577 39.4667 158.676 39.1601 158.872 39.1601H165.606C165.815 39.1601 165.919 39.4667 165.919 40.08C165.919 40.6933 165.815 41 165.606 41H158.872ZM168.654 28.7645C168.458 28.7645 168.359 28.4578 168.359 27.8445C168.359 27.2312 168.458 26.9246 168.654 26.9246H172.941C173.149 26.9246 173.254 27.2312 173.254 27.8445C173.254 28.4578 173.149 28.7645 172.941 28.7645H168.654ZM168.654 26.3174C168.458 26.3174 168.359 26.0107 168.359 25.3974C168.359 24.7841 168.458 24.4775 168.654 24.4775H185.176C185.385 24.4775 185.489 24.7841 185.489 25.3974C185.489 26.0107 185.385 26.3174 185.176 26.3174H168.654ZM168.654 31.2116C168.458 31.2116 168.359 30.9049 168.359 30.2916C168.359 29.6783 168.458 29.3717 168.654 29.3717H172.941C173.149 29.3717 173.254 29.6783 173.254 30.2916C173.254 30.9049 173.149 31.2116 172.941 31.2116H168.654ZM168.654 36.1058C168.458 36.1058 168.359 35.7991 168.359 35.1858C168.359 34.5725 168.458 34.2659 168.654 34.2659H172.941C173.149 34.2659 173.254 34.5725 173.254 35.1858C173.254 35.7991 173.149 36.1058 172.941 36.1058H168.654ZM168.654 33.6587C168.458 33.6587 168.359 33.352 168.359 32.7387C168.359 32.1254 168.458 31.8188 168.654 31.8188H182.729C182.938 31.8188 183.042 32.1254 183.042 32.7387C183.042 33.352 182.938 33.6587 182.729 33.6587H168.654ZM168.654 38.5529C168.458 38.5529 168.359 38.2462 168.359 37.6329C168.359 37.0196 168.458 36.713 168.654 36.713H172.941C173.149 36.713 173.254 37.0196 173.254 37.6329C173.254 38.2462 173.149 38.5529 172.941 38.5529H168.654ZM168.654 41C168.458 41 168.359 40.6933 168.359 40.08C168.359 39.4667 168.458 39.1601 168.654 39.1601H185.176C185.385 39.1601 185.489 39.4667 185.489 40.08C185.489 40.6933 185.385 41 185.176 41H168.654ZM188.224 28.7645C188.028 28.7645 187.93 28.4578 187.93 27.8445C187.93 27.2312 188.028 26.9246 188.224 26.9246H192.511C192.72 26.9246 192.824 27.2312 192.824 27.8445C192.824 28.4578 192.72 28.7645 192.511 28.7645H188.224ZM200.46 28.7645C200.263 28.7645 200.165 28.4578 200.165 27.8445C200.165 27.2312 200.263 26.9246 200.46 26.9246H204.747C204.955 26.9246 205.059 27.2312 205.059 27.8445C205.059 28.4578 204.955 28.7645 204.747 28.7645H200.46ZM188.224 26.3174C188.028 26.3174 187.93 26.0107 187.93 25.3974C187.93 24.7841 188.028 24.4775 188.224 24.4775H202.3C202.508 24.4775 202.612 24.7841 202.612 25.3974C202.612 26.0107 202.508 26.3174 202.3 26.3174H188.224ZM188.224 31.2116C188.028 31.2116 187.93 30.9049 187.93 30.2916C187.93 29.6783 188.028 29.3717 188.224 29.3717H192.511C192.72 29.3717 192.824 29.6783 192.824 30.2916C192.824 30.9049 192.72 31.2116 192.511 31.2116H188.224ZM200.46 31.2116C200.263 31.2116 200.165 30.9049 200.165 30.2916C200.165 29.6783 200.263 29.3717 200.46 29.3717H204.747C204.955 29.3717 205.059 29.6783 205.059 30.2916C205.059 30.9049 204.955 31.2116 204.747 31.2116H200.46ZM188.224 36.1058C188.028 36.1058 187.93 35.7991 187.93 35.1858C187.93 34.5725 188.028 34.2659 188.224 34.2659H202.3C202.508 34.2659 202.612 34.5725 202.612 35.1858C202.612 35.7991 202.508 36.1058 202.3 36.1058H188.224ZM188.224 33.6587C188.028 33.6587 187.93 33.352 187.93 32.7387C187.93 32.1254 188.028 31.8188 188.224 31.8188H192.511C192.72 31.8188 192.824 32.1254 192.824 32.7387C192.824 33.352 192.72 33.6587 192.511 33.6587H188.224ZM188.224 38.5529C188.028 38.5529 187.93 38.2462 187.93 37.6329C187.93 37.0196 188.028 36.713 188.224 36.713H192.511C192.72 36.713 192.824 37.0196 192.824 37.6329C192.824 38.2462 192.72 38.5529 192.511 38.5529H188.224ZM188.224 41C188.028 41 187.93 40.6933 187.93 40.08C187.93 39.4667 188.028 39.1601 188.224 39.1601H192.511C192.72 39.1601 192.824 39.4667 192.824 40.08C192.824 40.6933 192.72 41 192.511 41H188.224ZM200.46 33.6587C200.263 33.6587 200.165 33.352 200.165 32.7387C200.165 32.1254 200.263 31.8188 200.46 31.8188H204.747C204.955 31.8188 205.059 32.1254 205.059 32.7387C205.059 33.352 204.955 33.6587 204.747 33.6587H200.46ZM207.794 28.7645C207.598 28.7645 207.5 28.4578 207.5 27.8445C207.5 27.2312 207.598 26.9246 207.794 26.9246H212.081C212.29 26.9246 212.394 27.2312 212.394 27.8445C212.394 28.4578 212.29 28.7645 212.081 28.7645H207.794ZM207.794 26.3174C207.598 26.3174 207.5 26.0107 207.5 25.3974C207.5 24.7841 207.598 24.4775 207.794 24.4775H212.081C212.29 24.4775 212.394 24.7841 212.394 25.3974C212.394 26.0107 212.29 26.3174 212.081 26.3174H207.794ZM207.794 31.2116C207.598 31.2116 207.5 30.9049 207.5 30.2916C207.5 29.6783 207.598 29.3717 207.794 29.3717H212.081C212.29 29.3717 212.394 29.6783 212.394 30.2916C212.394 30.9049 212.29 31.2116 212.081 31.2116H207.794ZM207.794 36.1058C207.598 36.1058 207.5 35.7991 207.5 35.1858C207.5 34.5725 207.598 34.2659 207.794 34.2659H212.081C212.29 34.2659 212.394 34.5725 212.394 35.1858C212.394 35.7991 212.29 36.1058 212.081 36.1058H207.794ZM207.794 33.6587C207.598 33.6587 207.5 33.352 207.5 32.7387C207.5 32.1254 207.598 31.8188 207.794 31.8188H212.081C212.29 31.8188 212.394 32.1254 212.394 32.7387C212.394 33.352 212.29 33.6587 212.081 33.6587H207.794ZM207.794 38.5529C207.598 38.5529 207.5 38.2462 207.5 37.6329C207.5 37.0196 207.598 36.713 207.794 36.713H212.081C212.29 36.713 212.394 37.0196 212.394 37.6329C212.394 38.2462 212.29 38.5529 212.081 38.5529H207.794ZM207.794 41C207.598 41 207.5 40.6933 207.5 40.08C207.5 39.4667 207.598 39.1601 207.794 39.1601H224.317C224.525 39.1601 224.63 39.4667 224.63 40.08C224.63 40.6933 224.525 41 224.317 41H207.794ZM229.812 28.7645C229.616 28.7645 229.517 28.4578 229.517 27.8445C229.517 27.2312 229.616 26.9246 229.812 26.9246H234.099C234.307 26.9246 234.412 27.2312 234.412 27.8445C234.412 28.4578 234.307 28.7645 234.099 28.7645H229.812ZM237.153 28.7645C236.957 28.7645 236.859 28.4578 236.859 27.8445C236.859 27.2312 236.957 26.9246 237.153 26.9246H241.44C241.649 26.9246 241.753 27.2312 241.753 27.8445C241.753 28.4578 241.649 28.7645 241.44 28.7645H237.153ZM232.259 26.3174C232.063 26.3174 231.965 26.0107 231.965 25.3974C231.965 24.7841 232.063 24.4775 232.259 24.4775H238.993C239.202 24.4775 239.306 24.7841 239.306 25.3974C239.306 26.0107 239.202 26.3174 238.993 26.3174H232.259ZM227.365 31.2116C227.168 31.2116 227.07 30.9049 227.07 30.2916C227.07 29.6783 227.168 29.3717 227.365 29.3717H231.652C231.86 29.3717 231.965 29.6783 231.965 30.2916C231.965 30.9049 231.86 31.2116 231.652 31.2116H227.365ZM239.6 31.2116C239.404 31.2116 239.306 30.9049 239.306 30.2916C239.306 29.6783 239.404 29.3717 239.6 29.3717H243.887C244.096 29.3717 244.2 29.6783 244.2 30.2916C244.2 30.9049 244.096 31.2116 243.887 31.2116H239.6ZM227.365 33.6587C227.168 33.6587 227.07 33.352 227.07 32.7387C227.07 32.1254 227.168 31.8188 227.365 31.8188H231.652C231.86 31.8188 231.965 32.1254 231.965 32.7387C231.965 33.352 231.86 33.6587 231.652 33.6587H227.365ZM239.6 33.6587C239.404 33.6587 239.306 33.352 239.306 32.7387C239.306 32.1254 239.404 31.8188 239.6 31.8188H243.887C244.096 31.8188 244.2 32.1254 244.2 32.7387C244.2 33.352 244.096 33.6587 243.887 33.6587H239.6ZM227.365 36.1058C227.168 36.1058 227.07 35.7991 227.07 35.1858C227.07 34.5725 227.168 34.2659 227.365 34.2659H243.887C244.096 34.2659 244.2 34.5725 244.2 35.1858C244.2 35.7991 244.096 36.1058 243.887 36.1058H227.365ZM227.365 38.5529C227.168 38.5529 227.07 38.2462 227.07 37.6329C227.07 37.0196 227.168 36.713 227.365 36.713H231.652C231.86 36.713 231.965 37.0196 231.965 37.6329C231.965 38.2462 231.86 38.5529 231.652 38.5529H227.365ZM239.6 38.5529C239.404 38.5529 239.306 38.2462 239.306 37.6329C239.306 37.0196 239.404 36.713 239.6 36.713H243.887C244.096 36.713 244.2 37.0196 244.2 37.6329C244.2 38.2462 244.096 38.5529 243.887 38.5529H239.6ZM227.365 41C227.168 41 227.07 40.6933 227.07 40.08C227.07 39.4667 227.168 39.1601 227.365 39.1601H231.652C231.86 39.1601 231.965 39.4667 231.965 40.08C231.965 40.6933 231.86 41 231.652 41H227.365ZM239.6 41C239.404 41 239.306 40.6933 239.306 40.08C239.306 39.4667 239.404 39.1601 239.6 39.1601H243.887C244.096 39.1601 244.2 39.4667 244.2 40.08C244.2 40.6933 244.096 41 243.887 41H239.6ZM249.382 26.3174C249.186 26.3174 249.088 26.0107 249.088 25.3974C249.088 24.7841 249.186 24.4775 249.382 24.4775H253.669C253.878 24.4775 253.982 24.7841 253.982 25.3974C253.982 26.0107 253.878 26.3174 253.669 26.3174H249.382ZM249.382 28.7645C249.186 28.7645 249.088 28.4578 249.088 27.8445C249.088 27.2312 249.186 26.9246 249.382 26.9246H253.669C253.878 26.9246 253.982 27.2312 253.982 27.8445C253.982 28.4578 253.878 28.7645 253.669 28.7645H249.382ZM249.382 31.2116C249.186 31.2116 249.088 30.9049 249.088 30.2916C249.088 29.6783 249.186 29.3717 249.382 29.3717H253.669C253.878 29.3717 253.982 29.6783 253.982 30.2916C253.982 30.9049 253.878 31.2116 253.669 31.2116H249.382ZM251.829 33.6587C251.633 33.6587 251.535 33.352 251.535 32.7387C251.535 32.1254 251.633 31.8188 251.829 31.8188H261.01C261.219 31.8188 261.323 32.1254 261.323 32.7387C261.323 33.352 261.219 33.6587 261.01 33.6587H251.829ZM259.171 26.3174C258.974 26.3174 258.876 26.0107 258.876 25.3974C258.876 24.7841 258.974 24.4775 259.171 24.4775H263.458C263.666 24.4775 263.77 24.7841 263.77 25.3974C263.77 26.0107 263.666 26.3174 263.458 26.3174H259.171ZM259.171 28.7645C258.974 28.7645 258.876 28.4578 258.876 27.8445C258.876 27.2312 258.974 26.9246 259.171 26.9246H263.458C263.666 26.9246 263.77 27.2312 263.77 27.8445C263.77 28.4578 263.666 28.7645 263.458 28.7645H259.171ZM254.276 36.1058C254.08 36.1058 253.982 35.7991 253.982 35.1858C253.982 34.5725 254.08 34.2659 254.276 34.2659H258.563C258.772 34.2659 258.876 34.5725 258.876 35.1858C258.876 35.7991 258.772 36.1058 258.563 36.1058H254.276ZM254.276 38.5529C254.08 38.5529 253.982 38.2462 253.982 37.6329C253.982 37.0196 254.08 36.713 254.276 36.713H258.563C258.772 36.713 258.876 37.0196 258.876 37.6329C258.876 38.2462 258.772 38.5529 258.563 38.5529H254.276ZM254.276 41C254.08 41 253.982 40.6933 253.982 40.08C253.982 39.4667 254.08 39.1601 254.276 39.1601H258.563C258.772 39.1601 258.876 39.4667 258.876 40.08C258.876 40.6933 258.772 41 258.563 41H254.276ZM259.171 31.2116C258.974 31.2116 258.876 30.9049 258.876 30.2916C258.876 29.6783 258.974 29.3717 259.171 29.3717H263.458C263.666 29.3717 263.77 29.6783 263.77 30.2916C263.77 30.9049 263.666 31.2116 263.458 31.2116H259.171Z" fill="white"/>
</svg>
