<svg width="415" height="73" viewBox="0 0 415 73" fill="none" xmlns="http://www.w3.org/2000/svg">
<rect x="60" width="296" height="66" fill="#E2D1F2"/>
<rect x="60" width="296" height="66" fill="#E2D1F2"/>
<rect x="68" y="8" width="280" height="50" fill="#B27AF4"/>
<rect x="68" y="8" width="280" height="50" fill="#B27AF4"/>
<path d="M100.158 29.7645C99.9614 29.7645 99.8633 29.4578 99.8633 28.8445C99.8633 28.2312 99.9614 27.9246 100.158 27.9246H104.445C104.653 27.9246 104.757 28.2312 104.757 28.8445C104.757 29.4578 104.653 29.7645 104.445 29.7645H100.158ZM112.393 29.7645C112.197 29.7645 112.099 29.4578 112.099 28.8445C112.099 28.2312 112.197 27.9246 112.393 27.9246H116.68C116.889 27.9246 116.993 28.2312 116.993 28.8445C116.993 29.4578 116.889 29.7645 116.68 29.7645H112.393ZM100.158 27.3174C99.9614 27.3174 99.8633 27.0107 99.8633 26.3974C99.8633 25.7841 99.9614 25.4775 100.158 25.4775H114.233C114.442 25.4775 114.546 25.7841 114.546 26.3974C114.546 27.0107 114.442 27.3174 114.233 27.3174H100.158ZM100.158 32.2116C99.9614 32.2116 99.8633 31.9049 99.8633 31.2916C99.8633 30.6783 99.9614 30.3717 100.158 30.3717H104.445C104.653 30.3717 104.757 30.6783 104.757 31.2916C104.757 31.9049 104.653 32.2116 104.445 32.2116H100.158ZM112.393 32.2116C112.197 32.2116 112.099 31.9049 112.099 31.2916C112.099 30.6783 112.197 30.3717 112.393 30.3717H116.68C116.889 30.3717 116.993 30.6783 116.993 31.2916C116.993 31.9049 116.889 32.2116 116.68 32.2116H112.393ZM100.158 37.1058C99.9614 37.1058 99.8633 36.7991 99.8633 36.1858C99.8633 35.5725 99.9614 35.2659 100.158 35.2659H111.786C111.995 35.2659 112.099 35.5725 112.099 36.1858C112.099 36.7991 111.995 37.1058 111.786 37.1058H100.158ZM100.158 34.6587C99.9614 34.6587 99.8633 34.352 99.8633 33.7387C99.8633 33.1254 99.9614 32.8188 100.158 32.8188H104.445C104.653 32.8188 104.757 33.1254 104.757 33.7387C104.757 34.352 104.653 34.6587 104.445 34.6587H100.158ZM100.158 39.5529C99.9614 39.5529 99.8633 39.2462 99.8633 38.6329C99.8633 38.0196 99.9614 37.713 100.158 37.713H104.445C104.653 37.713 104.757 38.0196 104.757 38.6329C104.757 39.2462 104.653 39.5529 104.445 39.5529H100.158ZM107.499 39.5529C107.303 39.5529 107.205 39.2462 107.205 38.6329C107.205 38.0196 107.303 37.713 107.499 37.713H114.233C114.442 37.713 114.546 38.0196 114.546 38.6329C114.546 39.2462 114.442 39.5529 114.233 39.5529H107.499ZM100.158 42C99.9614 42 99.8633 41.6933 99.8633 41.08C99.8633 40.4667 99.9614 40.1601 100.158 40.1601H104.445C104.653 40.1601 104.757 40.4667 104.757 41.08C104.757 41.6933 104.653 42 104.445 42H100.158ZM109.946 34.6587C109.75 34.6587 109.652 34.352 109.652 33.7387C109.652 33.1254 109.75 32.8188 109.946 32.8188H116.68C116.889 32.8188 116.993 33.1254 116.993 33.7387C116.993 34.352 116.889 34.6587 116.68 34.6587H109.946ZM109.946 42C109.75 42 109.652 41.6933 109.652 41.08C109.652 40.4667 109.75 40.1601 109.946 40.1601H116.68C116.889 40.1601 116.993 40.4667 116.993 41.08C116.993 41.6933 116.889 42 116.68 42H109.946ZM119.728 29.7645C119.532 29.7645 119.434 29.4578 119.434 28.8445C119.434 28.2312 119.532 27.9246 119.728 27.9246H124.015C124.224 27.9246 124.328 28.2312 124.328 28.8445C124.328 29.4578 124.224 29.7645 124.015 29.7645H119.728ZM119.728 27.3174C119.532 27.3174 119.434 27.0107 119.434 26.3974C119.434 25.7841 119.532 25.4775 119.728 25.4775H136.251C136.459 25.4775 136.563 25.7841 136.563 26.3974C136.563 27.0107 136.459 27.3174 136.251 27.3174H119.728ZM119.728 32.2116C119.532 32.2116 119.434 31.9049 119.434 31.2916C119.434 30.6783 119.532 30.3717 119.728 30.3717H124.015C124.224 30.3717 124.328 30.6783 124.328 31.2916C124.328 31.9049 124.224 32.2116 124.015 32.2116H119.728ZM119.728 37.1058C119.532 37.1058 119.434 36.7991 119.434 36.1858C119.434 35.5725 119.532 35.2659 119.728 35.2659H124.015C124.224 35.2659 124.328 35.5725 124.328 36.1858C124.328 36.7991 124.224 37.1058 124.015 37.1058H119.728ZM119.728 34.6587C119.532 34.6587 119.434 34.352 119.434 33.7387C119.434 33.1254 119.532 32.8188 119.728 32.8188H133.803C134.012 32.8188 134.116 33.1254 134.116 33.7387C134.116 34.352 134.012 34.6587 133.803 34.6587H119.728ZM119.728 39.5529C119.532 39.5529 119.434 39.2462 119.434 38.6329C119.434 38.0196 119.532 37.713 119.728 37.713H124.015C124.224 37.713 124.328 38.0196 124.328 38.6329C124.328 39.2462 124.224 39.5529 124.015 39.5529H119.728ZM119.728 42C119.532 42 119.434 41.6933 119.434 41.08C119.434 40.4667 119.532 40.1601 119.728 40.1601H136.251C136.459 40.1601 136.563 40.4667 136.563 41.08C136.563 41.6933 136.459 42 136.251 42H119.728ZM146.64 29.7645C146.443 29.7645 146.345 29.4578 146.345 28.8445C146.345 28.2312 146.443 27.9246 146.64 27.9246H150.927C151.135 27.9246 151.239 28.2312 151.239 28.8445C151.239 29.4578 151.135 29.7645 150.927 29.7645H146.64ZM141.745 27.3174C141.549 27.3174 141.451 27.0107 141.451 26.3974C141.451 25.7841 141.549 25.4775 141.745 25.4775H155.821C156.029 25.4775 156.134 25.7841 156.134 26.3974C156.134 27.0107 156.029 27.3174 155.821 27.3174H141.745ZM146.64 32.2116C146.443 32.2116 146.345 31.9049 146.345 31.2916C146.345 30.6783 146.443 30.3717 146.64 30.3717H150.927C151.135 30.3717 151.239 30.6783 151.239 31.2916C151.239 31.9049 151.135 32.2116 150.927 32.2116H146.64ZM146.64 39.5529C146.443 39.5529 146.345 39.2462 146.345 38.6329C146.345 38.0196 146.443 37.713 146.64 37.713H150.927C151.135 37.713 151.239 38.0196 151.239 38.6329C151.239 39.2462 151.135 39.5529 150.927 39.5529H146.64ZM146.64 42C146.443 42 146.345 41.6933 146.345 41.08C146.345 40.4667 146.443 40.1601 146.64 40.1601H150.927C151.135 40.1601 151.239 40.4667 151.239 41.08C151.239 41.6933 151.135 42 150.927 42H146.64ZM146.64 34.6587C146.443 34.6587 146.345 34.352 146.345 33.7387C146.345 33.1254 146.443 32.8188 146.64 32.8188H150.927C151.135 32.8188 151.239 33.1254 151.239 33.7387C151.239 34.352 151.135 34.6587 150.927 34.6587H146.64ZM146.64 37.1058C146.443 37.1058 146.345 36.7991 146.345 36.1858C146.345 35.5725 146.443 35.2659 146.64 35.2659H150.927C151.135 35.2659 151.239 35.5725 151.239 36.1858C151.239 36.7991 151.135 37.1058 150.927 37.1058H146.64ZM158.869 27.3174C158.672 27.3174 158.574 27.0107 158.574 26.3974C158.574 25.7841 158.672 25.4775 158.869 25.4775H163.156C163.364 25.4775 163.468 25.7841 163.468 26.3974C163.468 27.0107 163.364 27.3174 163.156 27.3174H158.869ZM161.316 42C161.119 42 161.021 41.6933 161.021 41.08C161.021 40.4667 161.119 40.1601 161.316 40.1601H172.944C173.153 40.1601 173.257 40.4667 173.257 41.08C173.257 41.6933 173.153 42 172.944 42H161.316ZM158.869 29.7645C158.672 29.7645 158.574 29.4578 158.574 28.8445C158.574 28.2312 158.672 27.9246 158.869 27.9246H163.156C163.364 27.9246 163.468 28.2312 163.468 28.8445C163.468 29.4578 163.364 29.7645 163.156 29.7645H158.869ZM158.869 37.1058C158.672 37.1058 158.574 36.7991 158.574 36.1858C158.574 35.5725 158.672 35.2659 158.869 35.2659H163.156C163.364 35.2659 163.468 35.5725 163.468 36.1858C163.468 36.7991 163.364 37.1058 163.156 37.1058H158.869ZM158.869 39.5529C158.672 39.5529 158.574 39.2462 158.574 38.6329C158.574 38.0196 158.672 37.713 158.869 37.713H163.156C163.364 37.713 163.468 38.0196 163.468 38.6329C163.468 39.2462 163.364 39.5529 163.156 39.5529H158.869ZM158.869 32.2116C158.672 32.2116 158.574 31.9049 158.574 31.2916C158.574 30.6783 158.672 30.3717 158.869 30.3717H163.156C163.364 30.3717 163.468 30.6783 163.468 31.2916C163.468 31.9049 163.364 32.2116 163.156 32.2116H158.869ZM158.869 34.6587C158.672 34.6587 158.574 34.352 158.574 33.7387C158.574 33.1254 158.672 32.8188 158.869 32.8188H163.156C163.364 32.8188 163.468 33.1254 163.468 33.7387C163.468 34.352 163.364 34.6587 163.156 34.6587H158.869ZM171.104 27.3174C170.908 27.3174 170.81 27.0107 170.81 26.3974C170.81 25.7841 170.908 25.4775 171.104 25.4775H175.391C175.6 25.4775 175.704 25.7841 175.704 26.3974C175.704 27.0107 175.6 27.3174 175.391 27.3174H171.104ZM171.104 29.7645C170.908 29.7645 170.81 29.4578 170.81 28.8445C170.81 28.2312 170.908 27.9246 171.104 27.9246H175.391C175.6 27.9246 175.704 28.2312 175.704 28.8445C175.704 29.4578 175.6 29.7645 175.391 29.7645H171.104ZM171.104 37.1058C170.908 37.1058 170.81 36.7991 170.81 36.1858C170.81 35.5725 170.908 35.2659 171.104 35.2659H175.391C175.6 35.2659 175.704 35.5725 175.704 36.1858C175.704 36.7991 175.6 37.1058 175.391 37.1058H171.104ZM171.104 39.5529C170.908 39.5529 170.81 39.2462 170.81 38.6329C170.81 38.0196 170.908 37.713 171.104 37.713H175.391C175.6 37.713 175.704 38.0196 175.704 38.6329C175.704 39.2462 175.6 39.5529 175.391 39.5529H171.104ZM171.104 32.2116C170.908 32.2116 170.81 31.9049 170.81 31.2916C170.81 30.6783 170.908 30.3717 171.104 30.3717H175.391C175.6 30.3717 175.704 30.6783 175.704 31.2916C175.704 31.9049 175.6 32.2116 175.391 32.2116H171.104ZM171.104 34.6587C170.908 34.6587 170.81 34.352 170.81 33.7387C170.81 33.1254 170.908 32.8188 171.104 32.8188H175.391C175.6 32.8188 175.704 33.1254 175.704 33.7387C175.704 34.352 175.6 34.6587 175.391 34.6587H171.104ZM178.439 29.7645C178.243 29.7645 178.145 29.4578 178.145 28.8445C178.145 28.2312 178.243 27.9246 178.439 27.9246H182.726C182.934 27.9246 183.039 28.2312 183.039 28.8445C183.039 29.4578 182.934 29.7645 182.726 29.7645H178.439ZM190.674 29.7645C190.478 29.7645 190.38 29.4578 190.38 28.8445C190.38 28.2312 190.478 27.9246 190.674 27.9246H194.961C195.17 27.9246 195.274 28.2312 195.274 28.8445C195.274 29.4578 195.17 29.7645 194.961 29.7645H190.674ZM178.439 27.3174C178.243 27.3174 178.145 27.0107 178.145 26.3974C178.145 25.7841 178.243 25.4775 178.439 25.4775H192.514C192.723 25.4775 192.827 25.7841 192.827 26.3974C192.827 27.0107 192.723 27.3174 192.514 27.3174H178.439ZM178.439 32.2116C178.243 32.2116 178.145 31.9049 178.145 31.2916C178.145 30.6783 178.243 30.3717 178.439 30.3717H182.726C182.934 30.3717 183.039 30.6783 183.039 31.2916C183.039 31.9049 182.934 32.2116 182.726 32.2116H178.439ZM190.674 32.2116C190.478 32.2116 190.38 31.9049 190.38 31.2916C190.38 30.6783 190.478 30.3717 190.674 30.3717H194.961C195.17 30.3717 195.274 30.6783 195.274 31.2916C195.274 31.9049 195.17 32.2116 194.961 32.2116H190.674ZM178.439 37.1058C178.243 37.1058 178.145 36.7991 178.145 36.1858C178.145 35.5725 178.243 35.2659 178.439 35.2659H190.067C190.276 35.2659 190.38 35.5725 190.38 36.1858C190.38 36.7991 190.276 37.1058 190.067 37.1058H178.439ZM178.439 34.6587C178.243 34.6587 178.145 34.352 178.145 33.7387C178.145 33.1254 178.243 32.8188 178.439 32.8188H182.726C182.934 32.8188 183.039 33.1254 183.039 33.7387C183.039 34.352 182.934 34.6587 182.726 34.6587H178.439ZM178.439 39.5529C178.243 39.5529 178.145 39.2462 178.145 38.6329C178.145 38.0196 178.243 37.713 178.439 37.713H182.726C182.934 37.713 183.039 38.0196 183.039 38.6329C183.039 39.2462 182.934 39.5529 182.726 39.5529H178.439ZM185.78 39.5529C185.584 39.5529 185.486 39.2462 185.486 38.6329C185.486 38.0196 185.584 37.713 185.78 37.713H192.514C192.723 37.713 192.827 38.0196 192.827 38.6329C192.827 39.2462 192.723 39.5529 192.514 39.5529H185.78ZM178.439 42C178.243 42 178.145 41.6933 178.145 41.08C178.145 40.4667 178.243 40.1601 178.439 40.1601H182.726C182.934 40.1601 183.039 40.4667 183.039 41.08C183.039 41.6933 182.934 42 182.726 42H178.439ZM188.227 34.6587C188.031 34.6587 187.933 34.352 187.933 33.7387C187.933 33.1254 188.031 32.8188 188.227 32.8188H194.961C195.17 32.8188 195.274 33.1254 195.274 33.7387C195.274 34.352 195.17 34.6587 194.961 34.6587H188.227ZM188.227 42C188.031 42 187.933 41.6933 187.933 41.08C187.933 40.4667 188.031 40.1601 188.227 40.1601H194.961C195.17 40.1601 195.274 40.4667 195.274 41.08C195.274 41.6933 195.17 42 194.961 42H188.227ZM198.009 29.7645C197.813 29.7645 197.715 29.4578 197.715 28.8445C197.715 28.2312 197.813 27.9246 198.009 27.9246H204.743C204.952 27.9246 205.056 28.2312 205.056 28.8445C205.056 29.4578 204.952 29.7645 204.743 29.7645H198.009ZM198.009 32.2116C197.813 32.2116 197.715 31.9049 197.715 31.2916C197.715 30.6783 197.813 30.3717 198.009 30.3717H207.19C207.399 30.3717 207.503 30.6783 207.503 31.2916C207.503 31.9049 207.399 32.2116 207.19 32.2116H198.009ZM198.009 37.1058C197.813 37.1058 197.715 36.7991 197.715 36.1858C197.715 35.5725 197.813 35.2659 198.009 35.2659H202.296C202.505 35.2659 202.609 35.5725 202.609 36.1858C202.609 36.7991 202.505 37.1058 202.296 37.1058H198.009ZM198.009 39.5529C197.813 39.5529 197.715 39.2462 197.715 38.6329C197.715 38.0196 197.813 37.713 198.009 37.713H202.296C202.505 37.713 202.609 38.0196 202.609 38.6329C202.609 39.2462 202.505 39.5529 202.296 39.5529H198.009ZM198.009 27.3174C197.813 27.3174 197.715 27.0107 197.715 26.3974C197.715 25.7841 197.813 25.4775 198.009 25.4775H202.296C202.505 25.4775 202.609 25.7841 202.609 26.3974C202.609 27.0107 202.505 27.3174 202.296 27.3174H198.009ZM198.009 42C197.813 42 197.715 41.6933 197.715 41.08C197.715 40.4667 197.813 40.1601 198.009 40.1601H202.296C202.505 40.1601 202.609 40.4667 202.609 41.08C202.609 41.6933 202.505 42 202.296 42H198.009ZM210.245 29.7645C210.048 29.7645 209.95 29.4578 209.95 28.8445C209.95 28.2312 210.048 27.9246 210.245 27.9246H214.532C214.74 27.9246 214.845 28.2312 214.845 28.8445C214.845 29.4578 214.74 29.7645 214.532 29.7645H210.245ZM205.351 37.1058C205.154 37.1058 205.056 36.7991 205.056 36.1858C205.056 35.5725 205.154 35.2659 205.351 35.2659H214.532C214.74 35.2659 214.845 35.5725 214.845 36.1858C214.845 36.7991 214.74 37.1058 214.532 37.1058H205.351ZM207.798 39.5529C207.601 39.5529 207.503 39.2462 207.503 38.6329C207.503 38.0196 207.601 37.713 207.798 37.713H214.532C214.74 37.713 214.845 38.0196 214.845 38.6329C214.845 39.2462 214.74 39.5529 214.532 39.5529H207.798ZM210.245 27.3174C210.048 27.3174 209.95 27.0107 209.95 26.3974C209.95 25.7841 210.048 25.4775 210.245 25.4775H214.532C214.74 25.4775 214.845 25.7841 214.845 26.3974C214.845 27.0107 214.74 27.3174 214.532 27.3174H210.245ZM210.245 42C210.048 42 209.95 41.6933 209.95 41.08C209.95 40.4667 210.048 40.1601 210.245 40.1601H214.532C214.74 40.1601 214.845 40.4667 214.845 41.08C214.845 41.6933 214.74 42 214.532 42H210.245ZM198.009 34.6587C197.813 34.6587 197.715 34.352 197.715 33.7387C197.715 33.1254 197.813 32.8188 198.009 32.8188H214.532C214.74 32.8188 214.845 33.1254 214.845 33.7387C214.845 34.352 214.74 34.6587 214.532 34.6587H198.009ZM210.245 32.2116C210.048 32.2116 209.95 31.9049 209.95 31.2916C209.95 30.6783 210.048 30.3717 210.245 30.3717H214.532C214.74 30.3717 214.845 30.6783 214.845 31.2916C214.845 31.9049 214.74 32.2116 214.532 32.2116H210.245ZM237.15 29.7645C236.954 29.7645 236.855 29.4578 236.855 28.8445C236.855 28.2312 236.954 27.9246 237.15 27.9246H241.437C241.645 27.9246 241.75 28.2312 241.75 28.8445C241.75 29.4578 241.645 29.7645 241.437 29.7645H237.15ZM237.15 32.2116C236.954 32.2116 236.855 31.9049 236.855 31.2916C236.855 30.6783 236.954 30.3717 237.15 30.3717H241.437C241.645 30.3717 241.75 30.6783 241.75 31.2916C241.75 31.9049 241.645 32.2116 241.437 32.2116H237.15ZM237.15 37.1058C236.954 37.1058 236.855 36.7991 236.855 36.1858C236.855 35.5725 236.954 35.2659 237.15 35.2659H241.437C241.645 35.2659 241.75 35.5725 241.75 36.1858C241.75 36.7991 241.645 37.1058 241.437 37.1058H237.15ZM237.15 34.6587C236.954 34.6587 236.855 34.352 236.855 33.7387C236.855 33.1254 236.954 32.8188 237.15 32.8188H253.672C253.881 32.8188 253.985 33.1254 253.985 33.7387C253.985 34.352 253.881 34.6587 253.672 34.6587H237.15ZM237.15 39.5529C236.954 39.5529 236.855 39.2462 236.855 38.6329C236.855 38.0196 236.954 37.713 237.15 37.713H241.437C241.645 37.713 241.75 38.0196 241.75 38.6329C241.75 39.2462 241.645 39.5529 241.437 39.5529H237.15ZM237.15 27.3174C236.954 27.3174 236.855 27.0107 236.855 26.3974C236.855 25.7841 236.954 25.4775 237.15 25.4775H241.437C241.645 25.4775 241.75 25.7841 241.75 26.3974C241.75 27.0107 241.645 27.3174 241.437 27.3174H237.15ZM237.15 42C236.954 42 236.855 41.6933 236.855 41.08C236.855 40.4667 236.954 40.1601 237.15 40.1601H241.437C241.645 40.1601 241.75 40.4667 241.75 41.08C241.75 41.6933 241.645 42 241.437 42H237.15ZM249.385 29.7645C249.189 29.7645 249.091 29.4578 249.091 28.8445C249.091 28.2312 249.189 27.9246 249.385 27.9246H253.672C253.881 27.9246 253.985 28.2312 253.985 28.8445C253.985 29.4578 253.881 29.7645 253.672 29.7645H249.385ZM249.385 32.2116C249.189 32.2116 249.091 31.9049 249.091 31.2916C249.091 30.6783 249.189 30.3717 249.385 30.3717H253.672C253.881 30.3717 253.985 30.6783 253.985 31.2916C253.985 31.9049 253.881 32.2116 253.672 32.2116H249.385ZM249.385 37.1058C249.189 37.1058 249.091 36.7991 249.091 36.1858C249.091 35.5725 249.189 35.2659 249.385 35.2659H253.672C253.881 35.2659 253.985 35.5725 253.985 36.1858C253.985 36.7991 253.881 37.1058 253.672 37.1058H249.385ZM249.385 39.5529C249.189 39.5529 249.091 39.2462 249.091 38.6329C249.091 38.0196 249.189 37.713 249.385 37.713H253.672C253.881 37.713 253.985 38.0196 253.985 38.6329C253.985 39.2462 253.881 39.5529 253.672 39.5529H249.385ZM249.385 27.3174C249.189 27.3174 249.091 27.0107 249.091 26.3974C249.091 25.7841 249.189 25.4775 249.385 25.4775H253.672C253.881 25.4775 253.985 25.7841 253.985 26.3974C253.985 27.0107 253.881 27.3174 253.672 27.3174H249.385ZM249.385 42C249.189 42 249.091 41.6933 249.091 41.08C249.091 40.4667 249.189 40.1601 249.385 40.1601H253.672C253.881 40.1601 253.985 40.4667 253.985 41.08C253.985 41.6933 253.881 42 253.672 42H249.385ZM256.72 29.7645C256.524 29.7645 256.426 29.4578 256.426 28.8445C256.426 28.2312 256.524 27.9246 256.72 27.9246H261.007C261.216 27.9246 261.32 28.2312 261.32 28.8445C261.32 29.4578 261.216 29.7645 261.007 29.7645H256.72ZM268.956 29.7645C268.759 29.7645 268.661 29.4578 268.661 28.8445C268.661 28.2312 268.759 27.9246 268.956 27.9246H273.243C273.451 27.9246 273.555 28.2312 273.555 28.8445C273.555 29.4578 273.451 29.7645 273.243 29.7645H268.956ZM259.167 27.3174C258.971 27.3174 258.873 27.0107 258.873 26.3974C258.873 25.7841 258.971 25.4775 259.167 25.4775H270.796C271.004 25.4775 271.108 25.7841 271.108 26.3974C271.108 27.0107 271.004 27.3174 270.796 27.3174H259.167ZM256.72 32.2116C256.524 32.2116 256.426 31.9049 256.426 31.2916C256.426 30.6783 256.524 30.3717 256.72 30.3717H261.007C261.216 30.3717 261.32 30.6783 261.32 31.2916C261.32 31.9049 261.216 32.2116 261.007 32.2116H256.72ZM268.956 32.2116C268.759 32.2116 268.661 31.9049 268.661 31.2916C268.661 30.6783 268.759 30.3717 268.956 30.3717H273.243C273.451 30.3717 273.555 30.6783 273.555 31.2916C273.555 31.9049 273.451 32.2116 273.243 32.2116H268.956ZM256.72 37.1058C256.524 37.1058 256.426 36.7991 256.426 36.1858C256.426 35.5725 256.524 35.2659 256.72 35.2659H261.007C261.216 35.2659 261.32 35.5725 261.32 36.1858C261.32 36.7991 261.216 37.1058 261.007 37.1058H256.72ZM268.956 37.1058C268.759 37.1058 268.661 36.7991 268.661 36.1858C268.661 35.5725 268.759 35.2659 268.956 35.2659H273.243C273.451 35.2659 273.555 35.5725 273.555 36.1858C273.555 36.7991 273.451 37.1058 273.243 37.1058H268.956ZM256.72 34.6587C256.524 34.6587 256.426 34.352 256.426 33.7387C256.426 33.1254 256.524 32.8188 256.72 32.8188H261.007C261.216 32.8188 261.32 33.1254 261.32 33.7387C261.32 34.352 261.216 34.6587 261.007 34.6587H256.72ZM256.72 39.5529C256.524 39.5529 256.426 39.2462 256.426 38.6329C256.426 38.0196 256.524 37.713 256.72 37.713H261.007C261.216 37.713 261.32 38.0196 261.32 38.6329C261.32 39.2462 261.216 39.5529 261.007 39.5529H256.72ZM268.956 39.5529C268.759 39.5529 268.661 39.2462 268.661 38.6329C268.661 38.0196 268.759 37.713 268.956 37.713H273.243C273.451 37.713 273.555 38.0196 273.555 38.6329C273.555 39.2462 273.451 39.5529 273.243 39.5529H268.956ZM259.167 42C258.971 42 258.873 41.6933 258.873 41.08C258.873 40.4667 258.971 40.1601 259.167 40.1601H270.796C271.004 40.1601 271.108 40.4667 271.108 41.08C271.108 41.6933 271.004 42 270.796 42H259.167ZM268.956 34.6587C268.759 34.6587 268.661 34.352 268.661 33.7387C268.661 33.1254 268.759 32.8188 268.956 32.8188H273.243C273.451 32.8188 273.555 33.1254 273.555 33.7387C273.555 34.352 273.451 34.6587 273.243 34.6587H268.956ZM276.29 29.7645C276.094 29.7645 275.996 29.4578 275.996 28.8445C275.996 28.2312 276.094 27.9246 276.29 27.9246H283.025C283.233 27.9246 283.337 28.2312 283.337 28.8445C283.337 29.4578 283.233 29.7645 283.025 29.7645H276.29ZM276.29 32.2116C276.094 32.2116 275.996 31.9049 275.996 31.2916C275.996 30.6783 276.094 30.3717 276.29 30.3717H292.813C293.022 30.3717 293.126 30.6783 293.126 31.2916C293.126 31.9049 293.022 32.2116 292.813 32.2116H276.29ZM276.29 37.1058C276.094 37.1058 275.996 36.7991 275.996 36.1858C275.996 35.5725 276.094 35.2659 276.29 35.2659H280.578C280.786 35.2659 280.89 35.5725 280.89 36.1858C280.89 36.7991 280.786 37.1058 280.578 37.1058H276.29ZM276.29 39.5529C276.094 39.5529 275.996 39.2462 275.996 38.6329C275.996 38.0196 276.094 37.713 276.29 37.713H280.578C280.786 37.713 280.89 38.0196 280.89 38.6329C280.89 39.2462 280.786 39.5529 280.578 39.5529H276.29ZM276.29 27.3174C276.094 27.3174 275.996 27.0107 275.996 26.3974C275.996 25.7841 276.094 25.4775 276.29 25.4775H280.578C280.786 25.4775 280.89 25.7841 280.89 26.3974C280.89 27.0107 280.786 27.3174 280.578 27.3174H276.29ZM276.29 42C276.094 42 275.996 41.6933 275.996 41.08C275.996 40.4667 276.094 40.1601 276.29 40.1601H280.578C280.786 40.1601 280.89 40.4667 280.89 41.08C280.89 41.6933 280.786 42 280.578 42H276.29ZM286.079 29.7645C285.883 29.7645 285.785 29.4578 285.785 28.8445C285.785 28.2312 285.883 27.9246 286.079 27.9246H292.813C293.022 27.9246 293.126 28.2312 293.126 28.8445C293.126 29.4578 293.022 29.7645 292.813 29.7645H286.079ZM288.526 37.1058C288.33 37.1058 288.232 36.7991 288.232 36.1858C288.232 35.5725 288.33 35.2659 288.526 35.2659H292.813C293.022 35.2659 293.126 35.5725 293.126 36.1858C293.126 36.7991 293.022 37.1058 292.813 37.1058H288.526ZM288.526 39.5529C288.33 39.5529 288.232 39.2462 288.232 38.6329C288.232 38.0196 288.33 37.713 288.526 37.713H292.813C293.022 37.713 293.126 38.0196 293.126 38.6329C293.126 39.2462 293.022 39.5529 292.813 39.5529H288.526ZM288.526 27.3174C288.33 27.3174 288.232 27.0107 288.232 26.3974C288.232 25.7841 288.33 25.4775 288.526 25.4775H292.813C293.022 25.4775 293.126 25.7841 293.126 26.3974C293.126 27.0107 293.022 27.3174 292.813 27.3174H288.526ZM288.526 42C288.33 42 288.232 41.6933 288.232 41.08C288.232 40.4667 288.33 40.1601 288.526 40.1601H292.813C293.022 40.1601 293.126 40.4667 293.126 41.08C293.126 41.6933 293.022 42 292.813 42H288.526ZM283.632 37.1058C283.436 37.1058 283.337 36.7991 283.337 36.1858C283.337 35.5725 283.436 35.2659 283.632 35.2659H285.472C285.68 35.2659 285.785 35.5725 285.785 36.1858C285.785 36.7991 285.68 37.1058 285.472 37.1058H283.632ZM276.29 34.6587C276.094 34.6587 275.996 34.352 275.996 33.7387C275.996 33.1254 276.094 32.8188 276.29 32.8188H292.813C293.022 32.8188 293.126 33.1254 293.126 33.7387C293.126 34.352 293.022 34.6587 292.813 34.6587H276.29ZM295.861 29.7645C295.665 29.7645 295.566 29.4578 295.566 28.8445C295.566 28.2312 295.665 27.9246 295.861 27.9246H300.148C300.356 27.9246 300.461 28.2312 300.461 28.8445C300.461 29.4578 300.356 29.7645 300.148 29.7645H295.861ZM295.861 27.3174C295.665 27.3174 295.566 27.0107 295.566 26.3974C295.566 25.7841 295.665 25.4775 295.861 25.4775H312.383C312.592 25.4775 312.696 25.7841 312.696 26.3974C312.696 27.0107 312.592 27.3174 312.383 27.3174H295.861ZM295.861 32.2116C295.665 32.2116 295.566 31.9049 295.566 31.2916C295.566 30.6783 295.665 30.3717 295.861 30.3717H300.148C300.356 30.3717 300.461 30.6783 300.461 31.2916C300.461 31.9049 300.356 32.2116 300.148 32.2116H295.861ZM295.861 37.1058C295.665 37.1058 295.566 36.7991 295.566 36.1858C295.566 35.5725 295.665 35.2659 295.861 35.2659H300.148C300.356 35.2659 300.461 35.5725 300.461 36.1858C300.461 36.7991 300.356 37.1058 300.148 37.1058H295.861ZM295.861 34.6587C295.665 34.6587 295.566 34.352 295.566 33.7387C295.566 33.1254 295.665 32.8188 295.861 32.8188H309.936C310.145 32.8188 310.249 33.1254 310.249 33.7387C310.249 34.352 310.145 34.6587 309.936 34.6587H295.861ZM295.861 39.5529C295.665 39.5529 295.566 39.2462 295.566 38.6329C295.566 38.0196 295.665 37.713 295.861 37.713H300.148C300.356 37.713 300.461 38.0196 300.461 38.6329C300.461 39.2462 300.356 39.5529 300.148 39.5529H295.861ZM295.861 42C295.665 42 295.566 41.6933 295.566 41.08C295.566 40.4667 295.665 40.1601 295.861 40.1601H312.383C312.592 40.1601 312.696 40.4667 312.696 41.08C312.696 41.6933 312.592 42 312.383 42H295.861Z" fill="white"/>
</svg>
