<svg width="415" height="73" viewBox="0 0 415 73" fill="none" xmlns="http://www.w3.org/2000/svg">
<rect x="60" width="296" height="66" fill="#E2D1F2"/>
<rect x="60" width="296" height="66" fill="#E2D1F2"/>
<rect x="68" y="8" width="280" height="50" fill="#B27AF4"/>
<rect x="68" y="8" width="280" height="50" fill="#B27AF4"/>
<path d="M80.5874 29.7645C80.3911 29.7645 80.293 29.4578 80.293 28.8445C80.293 28.2312 80.3911 27.9246 80.5874 27.9246H84.8744C85.0829 27.9246 85.1872 28.2312 85.1872 28.8445C85.1872 29.4578 85.0829 29.7645 84.8744 29.7645H80.5874ZM90.3758 29.7645C90.1795 29.7645 90.0814 29.4578 90.0814 28.8445C90.0814 28.2312 90.1795 27.9246 90.3758 27.9246H94.6628C94.8713 27.9246 94.9756 28.2312 94.9756 28.8445C94.9756 29.4578 94.8713 29.7645 94.6628 29.7645H90.3758ZM83.0345 27.3174C82.8382 27.3174 82.7401 27.0107 82.7401 26.3974C82.7401 25.7841 82.8382 25.4775 83.0345 25.4775H92.2157C92.4242 25.4775 92.5285 25.7841 92.5285 26.3974C92.5285 27.0107 92.4242 27.3174 92.2157 27.3174H83.0345ZM80.5874 32.2116C80.3911 32.2116 80.293 31.9049 80.293 31.2916C80.293 30.6783 80.3911 30.3717 80.5874 30.3717H84.8744C85.0829 30.3717 85.1872 30.6783 85.1872 31.2916C85.1872 31.9049 85.0829 32.2116 84.8744 32.2116H80.5874ZM92.8229 37.1058C92.6266 37.1058 92.5285 36.7991 92.5285 36.1858C92.5285 35.5725 92.6266 35.2659 92.8229 35.2659H97.1099C97.3184 35.2659 97.4227 35.5725 97.4227 36.1858C97.4227 36.7991 97.3184 37.1058 97.1099 37.1058H92.8229ZM83.0345 34.6587C82.8382 34.6587 82.7401 34.352 82.7401 33.7387C82.7401 33.1254 82.8382 32.8188 83.0345 32.8188H94.6628C94.8713 32.8188 94.9756 33.1254 94.9756 33.7387C94.9756 34.352 94.8713 34.6587 94.6628 34.6587H83.0345ZM80.5874 39.5529C80.3911 39.5529 80.293 39.2462 80.293 38.6329C80.293 38.0196 80.3911 37.713 80.5874 37.713H84.8744C85.0829 37.713 85.1872 38.0196 85.1872 38.6329C85.1872 39.2462 85.0829 39.5529 84.8744 39.5529H80.5874ZM92.8229 39.5529C92.6266 39.5529 92.5285 39.2462 92.5285 38.6329C92.5285 38.0196 92.6266 37.713 92.8229 37.713H97.1099C97.3184 37.713 97.4227 38.0196 97.4227 38.6329C97.4227 39.2462 97.3184 39.5529 97.1099 39.5529H92.8229ZM83.0345 42C82.8382 42 82.7401 41.6933 82.7401 41.08C82.7401 40.4667 82.8382 40.1601 83.0345 40.1601H94.6628C94.8713 40.1601 94.9756 40.4667 94.9756 41.08C94.9756 41.6933 94.8713 42 94.6628 42H83.0345ZM102.605 27.3174C102.409 27.3174 102.31 27.0107 102.31 26.3974C102.31 25.7841 102.409 25.4775 102.605 25.4775H116.68C116.889 25.4775 116.993 25.7841 116.993 26.3974C116.993 27.0107 116.889 27.3174 116.68 27.3174H102.605ZM107.499 29.7645C107.303 29.7645 107.205 29.4578 107.205 28.8445C107.205 28.2312 107.303 27.9246 107.499 27.9246H111.786C111.995 27.9246 112.099 28.2312 112.099 28.8445C112.099 29.4578 111.995 29.7645 111.786 29.7645H107.499ZM107.499 32.2116C107.303 32.2116 107.205 31.9049 107.205 31.2916C107.205 30.6783 107.303 30.3717 107.499 30.3717H111.786C111.995 30.3717 112.099 30.6783 112.099 31.2916C112.099 31.9049 111.995 32.2116 111.786 32.2116H107.499ZM107.499 34.6587C107.303 34.6587 107.205 34.352 107.205 33.7387C107.205 33.1254 107.303 32.8188 107.499 32.8188H111.786C111.995 32.8188 112.099 33.1254 112.099 33.7387C112.099 34.352 111.995 34.6587 111.786 34.6587H107.499ZM107.499 37.1058C107.303 37.1058 107.205 36.7991 107.205 36.1858C107.205 35.5725 107.303 35.2659 107.499 35.2659H111.786C111.995 35.2659 112.099 35.5725 112.099 36.1858C112.099 36.7991 111.995 37.1058 111.786 37.1058H107.499ZM107.499 39.5529C107.303 39.5529 107.205 39.2462 107.205 38.6329C107.205 38.0196 107.303 37.713 107.499 37.713H111.786C111.995 37.713 112.099 38.0196 112.099 38.6329C112.099 39.2462 111.995 39.5529 111.786 39.5529H107.499ZM102.605 42C102.409 42 102.31 41.6933 102.31 41.08C102.31 40.4667 102.409 40.1601 102.605 40.1601H116.68C116.889 40.1601 116.993 40.4667 116.993 41.08C116.993 41.6933 116.889 42 116.68 42H102.605ZM119.728 29.7645C119.532 29.7645 119.434 29.4578 119.434 28.8445C119.434 28.2312 119.532 27.9246 119.728 27.9246H126.462C126.671 27.9246 126.775 28.2312 126.775 28.8445C126.775 29.4578 126.671 29.7645 126.462 29.7645H119.728ZM119.728 32.2116C119.532 32.2116 119.434 31.9049 119.434 31.2916C119.434 30.6783 119.532 30.3717 119.728 30.3717H128.909C129.118 30.3717 129.222 30.6783 129.222 31.2916C129.222 31.9049 129.118 32.2116 128.909 32.2116H119.728ZM119.728 37.1058C119.532 37.1058 119.434 36.7991 119.434 36.1858C119.434 35.5725 119.532 35.2659 119.728 35.2659H124.015C124.224 35.2659 124.328 35.5725 124.328 36.1858C124.328 36.7991 124.224 37.1058 124.015 37.1058H119.728ZM119.728 39.5529C119.532 39.5529 119.434 39.2462 119.434 38.6329C119.434 38.0196 119.532 37.713 119.728 37.713H124.015C124.224 37.713 124.328 38.0196 124.328 38.6329C124.328 39.2462 124.224 39.5529 124.015 39.5529H119.728ZM119.728 27.3174C119.532 27.3174 119.434 27.0107 119.434 26.3974C119.434 25.7841 119.532 25.4775 119.728 25.4775H124.015C124.224 25.4775 124.328 25.7841 124.328 26.3974C124.328 27.0107 124.224 27.3174 124.015 27.3174H119.728ZM119.728 42C119.532 42 119.434 41.6933 119.434 41.08C119.434 40.4667 119.532 40.1601 119.728 40.1601H124.015C124.224 40.1601 124.328 40.4667 124.328 41.08C124.328 41.6933 124.224 42 124.015 42H119.728ZM131.963 29.7645C131.767 29.7645 131.669 29.4578 131.669 28.8445C131.669 28.2312 131.767 27.9246 131.963 27.9246H136.251C136.459 27.9246 136.563 28.2312 136.563 28.8445C136.563 29.4578 136.459 29.7645 136.251 29.7645H131.963ZM127.069 37.1058C126.873 37.1058 126.775 36.7991 126.775 36.1858C126.775 35.5725 126.873 35.2659 127.069 35.2659H136.251C136.459 35.2659 136.563 35.5725 136.563 36.1858C136.563 36.7991 136.459 37.1058 136.251 37.1058H127.069ZM129.516 39.5529C129.32 39.5529 129.222 39.2462 129.222 38.6329C129.222 38.0196 129.32 37.713 129.516 37.713H136.251C136.459 37.713 136.563 38.0196 136.563 38.6329C136.563 39.2462 136.459 39.5529 136.251 39.5529H129.516ZM131.963 27.3174C131.767 27.3174 131.669 27.0107 131.669 26.3974C131.669 25.7841 131.767 25.4775 131.963 25.4775H136.251C136.459 25.4775 136.563 25.7841 136.563 26.3974C136.563 27.0107 136.459 27.3174 136.251 27.3174H131.963ZM131.963 42C131.767 42 131.669 41.6933 131.669 41.08C131.669 40.4667 131.767 40.1601 131.963 40.1601H136.251C136.459 40.1601 136.563 40.4667 136.563 41.08C136.563 41.6933 136.459 42 136.251 42H131.963ZM119.728 34.6587C119.532 34.6587 119.434 34.352 119.434 33.7387C119.434 33.1254 119.532 32.8188 119.728 32.8188H136.251C136.459 32.8188 136.563 33.1254 136.563 33.7387C136.563 34.352 136.459 34.6587 136.251 34.6587H119.728ZM131.963 32.2116C131.767 32.2116 131.669 31.9049 131.669 31.2916C131.669 30.6783 131.767 30.3717 131.963 30.3717H136.251C136.459 30.3717 136.563 30.6783 136.563 31.2916C136.563 31.9049 136.459 32.2116 136.251 32.2116H131.963ZM141.745 29.7645C141.549 29.7645 141.451 29.4578 141.451 28.8445C141.451 28.2312 141.549 27.9246 141.745 27.9246H146.032C146.241 27.9246 146.345 28.2312 146.345 28.8445C146.345 29.4578 146.241 29.7645 146.032 29.7645H141.745ZM149.087 34.6587C148.89 34.6587 148.792 34.352 148.792 33.7387C148.792 33.1254 148.89 32.8188 149.087 32.8188H155.821C156.029 32.8188 156.134 33.1254 156.134 33.7387C156.134 34.352 156.029 34.6587 155.821 34.6587H149.087ZM144.192 27.3174C143.996 27.3174 143.898 27.0107 143.898 26.3974C143.898 25.7841 143.996 25.4775 144.192 25.4775H155.821C156.029 25.4775 156.134 25.7841 156.134 26.3974C156.134 27.0107 156.029 27.3174 155.821 27.3174H144.192ZM139.298 32.2116C139.102 32.2116 139.004 31.9049 139.004 31.2916C139.004 30.6783 139.102 30.3717 139.298 30.3717H143.585C143.794 30.3717 143.898 30.6783 143.898 31.2916C143.898 31.9049 143.794 32.2116 143.585 32.2116H139.298ZM139.298 37.1058C139.102 37.1058 139.004 36.7991 139.004 36.1858C139.004 35.5725 139.102 35.2659 139.298 35.2659H143.585C143.794 35.2659 143.898 35.5725 143.898 36.1858C143.898 36.7991 143.794 37.1058 143.585 37.1058H139.298ZM139.298 34.6587C139.102 34.6587 139.004 34.352 139.004 33.7387C139.004 33.1254 139.102 32.8188 139.298 32.8188H143.585C143.794 32.8188 143.898 33.1254 143.898 33.7387C143.898 34.352 143.794 34.6587 143.585 34.6587H139.298ZM141.745 39.5529C141.549 39.5529 141.451 39.2462 141.451 38.6329C141.451 38.0196 141.549 37.713 141.745 37.713H146.032C146.241 37.713 146.345 38.0196 146.345 38.6329C146.345 39.2462 146.241 39.5529 146.032 39.5529H141.745ZM151.534 39.5529C151.338 39.5529 151.239 39.2462 151.239 38.6329C151.239 38.0196 151.338 37.713 151.534 37.713H155.821C156.029 37.713 156.134 38.0196 156.134 38.6329C156.134 39.2462 156.029 39.5529 155.821 39.5529H151.534ZM144.192 42C143.996 42 143.898 41.6933 143.898 41.08C143.898 40.4667 143.996 40.1601 144.192 40.1601H155.821C156.029 40.1601 156.134 40.4667 156.134 41.08C156.134 41.6933 156.029 42 155.821 42H144.192ZM151.534 37.1058C151.338 37.1058 151.239 36.7991 151.239 36.1858C151.239 35.5725 151.338 35.2659 151.534 35.2659H155.821C156.029 35.2659 156.134 35.5725 156.134 36.1858C156.134 36.7991 156.029 37.1058 155.821 37.1058H151.534ZM158.869 29.7645C158.672 29.7645 158.574 29.4578 158.574 28.8445C158.574 28.2312 158.672 27.9246 158.869 27.9246H163.156C163.364 27.9246 163.468 28.2312 163.468 28.8445C163.468 29.4578 163.364 29.7645 163.156 29.7645H158.869ZM158.869 27.3174C158.672 27.3174 158.574 27.0107 158.574 26.3974C158.574 25.7841 158.672 25.4775 158.869 25.4775H163.156C163.364 25.4775 163.468 25.7841 163.468 26.3974C163.468 27.0107 163.364 27.3174 163.156 27.3174H158.869ZM158.869 32.2116C158.672 32.2116 158.574 31.9049 158.574 31.2916C158.574 30.6783 158.672 30.3717 158.869 30.3717H163.156C163.364 30.3717 163.468 30.6783 163.468 31.2916C163.468 31.9049 163.364 32.2116 163.156 32.2116H158.869ZM158.869 37.1058C158.672 37.1058 158.574 36.7991 158.574 36.1858C158.574 35.5725 158.672 35.2659 158.869 35.2659H163.156C163.364 35.2659 163.468 35.5725 163.468 36.1858C163.468 36.7991 163.364 37.1058 163.156 37.1058H158.869ZM158.869 34.6587C158.672 34.6587 158.574 34.352 158.574 33.7387C158.574 33.1254 158.672 32.8188 158.869 32.8188H163.156C163.364 32.8188 163.468 33.1254 163.468 33.7387C163.468 34.352 163.364 34.6587 163.156 34.6587H158.869ZM158.869 39.5529C158.672 39.5529 158.574 39.2462 158.574 38.6329C158.574 38.0196 158.672 37.713 158.869 37.713H163.156C163.364 37.713 163.468 38.0196 163.468 38.6329C163.468 39.2462 163.364 39.5529 163.156 39.5529H158.869ZM158.869 42C158.672 42 158.574 41.6933 158.574 41.08C158.574 40.4667 158.672 40.1601 158.869 40.1601H175.391C175.6 40.1601 175.704 40.4667 175.704 41.08C175.704 41.6933 175.6 42 175.391 42H158.869ZM178.439 29.7645C178.243 29.7645 178.145 29.4578 178.145 28.8445C178.145 28.2312 178.243 27.9246 178.439 27.9246H182.726C182.934 27.9246 183.039 28.2312 183.039 28.8445C183.039 29.4578 182.934 29.7645 182.726 29.7645H178.439ZM178.439 27.3174C178.243 27.3174 178.145 27.0107 178.145 26.3974C178.145 25.7841 178.243 25.4775 178.439 25.4775H194.961C195.17 25.4775 195.274 25.7841 195.274 26.3974C195.274 27.0107 195.17 27.3174 194.961 27.3174H178.439ZM178.439 32.2116C178.243 32.2116 178.145 31.9049 178.145 31.2916C178.145 30.6783 178.243 30.3717 178.439 30.3717H182.726C182.934 30.3717 183.039 30.6783 183.039 31.2916C183.039 31.9049 182.934 32.2116 182.726 32.2116H178.439ZM178.439 37.1058C178.243 37.1058 178.145 36.7991 178.145 36.1858C178.145 35.5725 178.243 35.2659 178.439 35.2659H182.726C182.934 35.2659 183.039 35.5725 183.039 36.1858C183.039 36.7991 182.934 37.1058 182.726 37.1058H178.439ZM178.439 34.6587C178.243 34.6587 178.145 34.352 178.145 33.7387C178.145 33.1254 178.243 32.8188 178.439 32.8188H192.514C192.723 32.8188 192.827 33.1254 192.827 33.7387C192.827 34.352 192.723 34.6587 192.514 34.6587H178.439ZM178.439 39.5529C178.243 39.5529 178.145 39.2462 178.145 38.6329C178.145 38.0196 178.243 37.713 178.439 37.713H182.726C182.934 37.713 183.039 38.0196 183.039 38.6329C183.039 39.2462 182.934 39.5529 182.726 39.5529H178.439ZM178.439 42C178.243 42 178.145 41.6933 178.145 41.08C178.145 40.4667 178.243 40.1601 178.439 40.1601H194.961C195.17 40.1601 195.274 40.4667 195.274 41.08C195.274 41.6933 195.17 42 194.961 42H178.439ZM217.58 29.7645C217.383 29.7645 217.285 29.4578 217.285 28.8445C217.285 28.2312 217.383 27.9246 217.58 27.9246H221.867C222.075 27.9246 222.179 28.2312 222.179 28.8445C222.179 29.4578 222.075 29.7645 221.867 29.7645H217.58ZM229.815 29.7645C229.619 29.7645 229.521 29.4578 229.521 28.8445C229.521 28.2312 229.619 27.9246 229.815 27.9246H234.102C234.311 27.9246 234.415 28.2312 234.415 28.8445C234.415 29.4578 234.311 29.7645 234.102 29.7645H229.815ZM217.58 27.3174C217.383 27.3174 217.285 27.0107 217.285 26.3974C217.285 25.7841 217.383 25.4775 217.58 25.4775H231.655C231.864 25.4775 231.968 25.7841 231.968 26.3974C231.968 27.0107 231.864 27.3174 231.655 27.3174H217.58ZM217.58 32.2116C217.383 32.2116 217.285 31.9049 217.285 31.2916C217.285 30.6783 217.383 30.3717 217.58 30.3717H221.867C222.075 30.3717 222.179 30.6783 222.179 31.2916C222.179 31.9049 222.075 32.2116 221.867 32.2116H217.58ZM229.815 32.2116C229.619 32.2116 229.521 31.9049 229.521 31.2916C229.521 30.6783 229.619 30.3717 229.815 30.3717H234.102C234.311 30.3717 234.415 30.6783 234.415 31.2916C234.415 31.9049 234.311 32.2116 234.102 32.2116H229.815ZM217.58 37.1058C217.383 37.1058 217.285 36.7991 217.285 36.1858C217.285 35.5725 217.383 35.2659 217.58 35.2659H231.655C231.864 35.2659 231.968 35.5725 231.968 36.1858C231.968 36.7991 231.864 37.1058 231.655 37.1058H217.58ZM217.58 34.6587C217.383 34.6587 217.285 34.352 217.285 33.7387C217.285 33.1254 217.383 32.8188 217.58 32.8188H221.867C222.075 32.8188 222.179 33.1254 222.179 33.7387C222.179 34.352 222.075 34.6587 221.867 34.6587H217.58ZM217.58 39.5529C217.383 39.5529 217.285 39.2462 217.285 38.6329C217.285 38.0196 217.383 37.713 217.58 37.713H221.867C222.075 37.713 222.179 38.0196 222.179 38.6329C222.179 39.2462 222.075 39.5529 221.867 39.5529H217.58ZM217.58 42C217.383 42 217.285 41.6933 217.285 41.08C217.285 40.4667 217.383 40.1601 217.58 40.1601H221.867C222.075 40.1601 222.179 40.4667 222.179 41.08C222.179 41.6933 222.075 42 221.867 42H217.58ZM229.815 34.6587C229.619 34.6587 229.521 34.352 229.521 33.7387C229.521 33.1254 229.619 32.8188 229.815 32.8188H234.102C234.311 32.8188 234.415 33.1254 234.415 33.7387C234.415 34.352 234.311 34.6587 234.102 34.6587H229.815ZM237.15 29.7645C236.954 29.7645 236.855 29.4578 236.855 28.8445C236.855 28.2312 236.954 27.9246 237.15 27.9246H241.437C241.645 27.9246 241.75 28.2312 241.75 28.8445C241.75 29.4578 241.645 29.7645 241.437 29.7645H237.15ZM237.15 27.3174C236.954 27.3174 236.855 27.0107 236.855 26.3974C236.855 25.7841 236.954 25.4775 237.15 25.4775H241.437C241.645 25.4775 241.75 25.7841 241.75 26.3974C241.75 27.0107 241.645 27.3174 241.437 27.3174H237.15ZM237.15 32.2116C236.954 32.2116 236.855 31.9049 236.855 31.2916C236.855 30.6783 236.954 30.3717 237.15 30.3717H241.437C241.645 30.3717 241.75 30.6783 241.75 31.2916C241.75 31.9049 241.645 32.2116 241.437 32.2116H237.15ZM237.15 37.1058C236.954 37.1058 236.855 36.7991 236.855 36.1858C236.855 35.5725 236.954 35.2659 237.15 35.2659H241.437C241.645 35.2659 241.75 35.5725 241.75 36.1858C241.75 36.7991 241.645 37.1058 241.437 37.1058H237.15ZM237.15 34.6587C236.954 34.6587 236.855 34.352 236.855 33.7387C236.855 33.1254 236.954 32.8188 237.15 32.8188H241.437C241.645 32.8188 241.75 33.1254 241.75 33.7387C241.75 34.352 241.645 34.6587 241.437 34.6587H237.15ZM237.15 39.5529C236.954 39.5529 236.855 39.2462 236.855 38.6329C236.855 38.0196 236.954 37.713 237.15 37.713H241.437C241.645 37.713 241.75 38.0196 241.75 38.6329C241.75 39.2462 241.645 39.5529 241.437 39.5529H237.15ZM237.15 42C236.954 42 236.855 41.6933 236.855 41.08C236.855 40.4667 236.954 40.1601 237.15 40.1601H253.672C253.881 40.1601 253.985 40.4667 253.985 41.08C253.985 41.6933 253.881 42 253.672 42H237.15ZM259.167 29.7645C258.971 29.7645 258.873 29.4578 258.873 28.8445C258.873 28.2312 258.971 27.9246 259.167 27.9246H263.454C263.663 27.9246 263.767 28.2312 263.767 28.8445C263.767 29.4578 263.663 29.7645 263.454 29.7645H259.167ZM266.509 29.7645C266.312 29.7645 266.214 29.4578 266.214 28.8445C266.214 28.2312 266.312 27.9246 266.509 27.9246H270.796C271.004 27.9246 271.108 28.2312 271.108 28.8445C271.108 29.4578 271.004 29.7645 270.796 29.7645H266.509ZM261.614 27.3174C261.418 27.3174 261.32 27.0107 261.32 26.3974C261.32 25.7841 261.418 25.4775 261.614 25.4775H268.349C268.557 25.4775 268.661 25.7841 268.661 26.3974C268.661 27.0107 268.557 27.3174 268.349 27.3174H261.614ZM256.72 32.2116C256.524 32.2116 256.426 31.9049 256.426 31.2916C256.426 30.6783 256.524 30.3717 256.72 30.3717H261.007C261.216 30.3717 261.32 30.6783 261.32 31.2916C261.32 31.9049 261.216 32.2116 261.007 32.2116H256.72ZM268.956 32.2116C268.759 32.2116 268.661 31.9049 268.661 31.2916C268.661 30.6783 268.759 30.3717 268.956 30.3717H273.243C273.451 30.3717 273.555 30.6783 273.555 31.2916C273.555 31.9049 273.451 32.2116 273.243 32.2116H268.956ZM256.72 34.6587C256.524 34.6587 256.426 34.352 256.426 33.7387C256.426 33.1254 256.524 32.8188 256.72 32.8188H261.007C261.216 32.8188 261.32 33.1254 261.32 33.7387C261.32 34.352 261.216 34.6587 261.007 34.6587H256.72ZM268.956 34.6587C268.759 34.6587 268.661 34.352 268.661 33.7387C268.661 33.1254 268.759 32.8188 268.956 32.8188H273.243C273.451 32.8188 273.555 33.1254 273.555 33.7387C273.555 34.352 273.451 34.6587 273.243 34.6587H268.956ZM256.72 37.1058C256.524 37.1058 256.426 36.7991 256.426 36.1858C256.426 35.5725 256.524 35.2659 256.72 35.2659H273.243C273.451 35.2659 273.555 35.5725 273.555 36.1858C273.555 36.7991 273.451 37.1058 273.243 37.1058H256.72ZM256.72 39.5529C256.524 39.5529 256.426 39.2462 256.426 38.6329C256.426 38.0196 256.524 37.713 256.72 37.713H261.007C261.216 37.713 261.32 38.0196 261.32 38.6329C261.32 39.2462 261.216 39.5529 261.007 39.5529H256.72ZM268.956 39.5529C268.759 39.5529 268.661 39.2462 268.661 38.6329C268.661 38.0196 268.759 37.713 268.956 37.713H273.243C273.451 37.713 273.555 38.0196 273.555 38.6329C273.555 39.2462 273.451 39.5529 273.243 39.5529H268.956ZM256.72 42C256.524 42 256.426 41.6933 256.426 41.08C256.426 40.4667 256.524 40.1601 256.72 40.1601H261.007C261.216 40.1601 261.32 40.4667 261.32 41.08C261.32 41.6933 261.216 42 261.007 42H256.72ZM268.956 42C268.759 42 268.661 41.6933 268.661 41.08C268.661 40.4667 268.759 40.1601 268.956 40.1601H273.243C273.451 40.1601 273.555 40.4667 273.555 41.08C273.555 41.6933 273.451 42 273.243 42H268.956ZM278.738 27.3174C278.541 27.3174 278.443 27.0107 278.443 26.3974C278.443 25.7841 278.541 25.4775 278.738 25.4775H283.025C283.233 25.4775 283.337 25.7841 283.337 26.3974C283.337 27.0107 283.233 27.3174 283.025 27.3174H278.738ZM278.738 29.7645C278.541 29.7645 278.443 29.4578 278.443 28.8445C278.443 28.2312 278.541 27.9246 278.738 27.9246H283.025C283.233 27.9246 283.337 28.2312 283.337 28.8445C283.337 29.4578 283.233 29.7645 283.025 29.7645H278.738ZM278.738 32.2116C278.541 32.2116 278.443 31.9049 278.443 31.2916C278.443 30.6783 278.541 30.3717 278.738 30.3717H283.025C283.233 30.3717 283.337 30.6783 283.337 31.2916C283.337 31.9049 283.233 32.2116 283.025 32.2116H278.738ZM281.185 34.6587C280.988 34.6587 280.89 34.352 280.89 33.7387C280.89 33.1254 280.988 32.8188 281.185 32.8188H290.366C290.574 32.8188 290.679 33.1254 290.679 33.7387C290.679 34.352 290.574 34.6587 290.366 34.6587H281.185ZM288.526 27.3174C288.33 27.3174 288.232 27.0107 288.232 26.3974C288.232 25.7841 288.33 25.4775 288.526 25.4775H292.813C293.022 25.4775 293.126 25.7841 293.126 26.3974C293.126 27.0107 293.022 27.3174 292.813 27.3174H288.526ZM288.526 29.7645C288.33 29.7645 288.232 29.4578 288.232 28.8445C288.232 28.2312 288.33 27.9246 288.526 27.9246H292.813C293.022 27.9246 293.126 28.2312 293.126 28.8445C293.126 29.4578 293.022 29.7645 292.813 29.7645H288.526ZM283.632 37.1058C283.436 37.1058 283.337 36.7991 283.337 36.1858C283.337 35.5725 283.436 35.2659 283.632 35.2659H287.919C288.127 35.2659 288.232 35.5725 288.232 36.1858C288.232 36.7991 288.127 37.1058 287.919 37.1058H283.632ZM283.632 39.5529C283.436 39.5529 283.337 39.2462 283.337 38.6329C283.337 38.0196 283.436 37.713 283.632 37.713H287.919C288.127 37.713 288.232 38.0196 288.232 38.6329C288.232 39.2462 288.127 39.5529 287.919 39.5529H283.632ZM283.632 42C283.436 42 283.337 41.6933 283.337 41.08C283.337 40.4667 283.436 40.1601 283.632 40.1601H287.919C288.127 40.1601 288.232 40.4667 288.232 41.08C288.232 41.6933 288.127 42 287.919 42H283.632ZM288.526 32.2116C288.33 32.2116 288.232 31.9049 288.232 31.2916C288.232 30.6783 288.33 30.3717 288.526 30.3717H292.813C293.022 30.3717 293.126 30.6783 293.126 31.2916C293.126 31.9049 293.022 32.2116 292.813 32.2116H288.526ZM295.861 29.7645C295.665 29.7645 295.566 29.4578 295.566 28.8445C295.566 28.2312 295.665 27.9246 295.861 27.9246H300.148C300.356 27.9246 300.461 28.2312 300.461 28.8445C300.461 29.4578 300.356 29.7645 300.148 29.7645H295.861ZM295.861 27.3174C295.665 27.3174 295.566 27.0107 295.566 26.3974C295.566 25.7841 295.665 25.4775 295.861 25.4775H312.383C312.592 25.4775 312.696 25.7841 312.696 26.3974C312.696 27.0107 312.592 27.3174 312.383 27.3174H295.861ZM295.861 32.2116C295.665 32.2116 295.566 31.9049 295.566 31.2916C295.566 30.6783 295.665 30.3717 295.861 30.3717H300.148C300.356 30.3717 300.461 30.6783 300.461 31.2916C300.461 31.9049 300.356 32.2116 300.148 32.2116H295.861ZM295.861 37.1058C295.665 37.1058 295.566 36.7991 295.566 36.1858C295.566 35.5725 295.665 35.2659 295.861 35.2659H300.148C300.356 35.2659 300.461 35.5725 300.461 36.1858C300.461 36.7991 300.356 37.1058 300.148 37.1058H295.861ZM295.861 34.6587C295.665 34.6587 295.566 34.352 295.566 33.7387C295.566 33.1254 295.665 32.8188 295.861 32.8188H309.936C310.145 32.8188 310.249 33.1254 310.249 33.7387C310.249 34.352 310.145 34.6587 309.936 34.6587H295.861ZM295.861 39.5529C295.665 39.5529 295.566 39.2462 295.566 38.6329C295.566 38.0196 295.665 37.713 295.861 37.713H300.148C300.356 37.713 300.461 38.0196 300.461 38.6329C300.461 39.2462 300.356 39.5529 300.148 39.5529H295.861ZM295.861 42C295.665 42 295.566 41.6933 295.566 41.08C295.566 40.4667 295.665 40.1601 295.861 40.1601H312.383C312.592 40.1601 312.696 40.4667 312.696 41.08C312.696 41.6933 312.592 42 312.383 42H295.861ZM315.431 29.7645C315.235 29.7645 315.137 29.4578 315.137 28.8445C315.137 28.2312 315.235 27.9246 315.431 27.9246H319.718C319.927 27.9246 320.031 28.2312 320.031 28.8445C320.031 29.4578 319.927 29.7645 319.718 29.7645H315.431ZM327.667 29.7645C327.47 29.7645 327.372 29.4578 327.372 28.8445C327.372 28.2312 327.47 27.9246 327.667 27.9246H331.954C332.162 27.9246 332.266 28.2312 332.266 28.8445C332.266 29.4578 332.162 29.7645 331.954 29.7645H327.667ZM315.431 27.3174C315.235 27.3174 315.137 27.0107 315.137 26.3974C315.137 25.7841 315.235 25.4775 315.431 25.4775H329.507C329.715 25.4775 329.819 25.7841 329.819 26.3974C329.819 27.0107 329.715 27.3174 329.507 27.3174H315.431ZM315.431 32.2116C315.235 32.2116 315.137 31.9049 315.137 31.2916C315.137 30.6783 315.235 30.3717 315.431 30.3717H319.718C319.927 30.3717 320.031 30.6783 320.031 31.2916C320.031 31.9049 319.927 32.2116 319.718 32.2116H315.431ZM327.667 32.2116C327.47 32.2116 327.372 31.9049 327.372 31.2916C327.372 30.6783 327.47 30.3717 327.667 30.3717H331.954C332.162 30.3717 332.266 30.6783 332.266 31.2916C332.266 31.9049 332.162 32.2116 331.954 32.2116H327.667ZM315.431 37.1058C315.235 37.1058 315.137 36.7991 315.137 36.1858C315.137 35.5725 315.235 35.2659 315.431 35.2659H327.059C327.268 35.2659 327.372 35.5725 327.372 36.1858C327.372 36.7991 327.268 37.1058 327.059 37.1058H315.431ZM315.431 34.6587C315.235 34.6587 315.137 34.352 315.137 33.7387C315.137 33.1254 315.235 32.8188 315.431 32.8188H319.718C319.927 32.8188 320.031 33.1254 320.031 33.7387C320.031 34.352 319.927 34.6587 319.718 34.6587H315.431ZM315.431 39.5529C315.235 39.5529 315.137 39.2462 315.137 38.6329C315.137 38.0196 315.235 37.713 315.431 37.713H319.718C319.927 37.713 320.031 38.0196 320.031 38.6329C320.031 39.2462 319.927 39.5529 319.718 39.5529H315.431ZM322.772 39.5529C322.576 39.5529 322.478 39.2462 322.478 38.6329C322.478 38.0196 322.576 37.713 322.772 37.713H329.507C329.715 37.713 329.819 38.0196 329.819 38.6329C329.819 39.2462 329.715 39.5529 329.507 39.5529H322.772ZM315.431 42C315.235 42 315.137 41.6933 315.137 41.08C315.137 40.4667 315.235 40.1601 315.431 40.1601H319.718C319.927 40.1601 320.031 40.4667 320.031 41.08C320.031 41.6933 319.927 42 319.718 42H315.431ZM325.22 34.6587C325.023 34.6587 324.925 34.352 324.925 33.7387C324.925 33.1254 325.023 32.8188 325.22 32.8188H331.954C332.162 32.8188 332.266 33.1254 332.266 33.7387C332.266 34.352 332.162 34.6587 331.954 34.6587H325.22ZM325.22 42C325.023 42 324.925 41.6933 324.925 41.08C324.925 40.4667 325.023 40.1601 325.22 40.1601H331.954C332.162 40.1601 332.266 40.4667 332.266 41.08C332.266 41.6933 332.162 42 331.954 42H325.22Z" fill="white"/>
<path d="M80.5874 29.7645C80.3911 29.7645 80.293 29.4578 80.293 28.8445C80.293 28.2312 80.3911 27.9246 80.5874 27.9246H84.8744C85.0829 27.9246 85.1872 28.2312 85.1872 28.8445C85.1872 29.4578 85.0829 29.7645 84.8744 29.7645H80.5874ZM90.3758 29.7645C90.1795 29.7645 90.0814 29.4578 90.0814 28.8445C90.0814 28.2312 90.1795 27.9246 90.3758 27.9246H94.6628C94.8713 27.9246 94.9756 28.2312 94.9756 28.8445C94.9756 29.4578 94.8713 29.7645 94.6628 29.7645H90.3758ZM83.0345 27.3174C82.8382 27.3174 82.7401 27.0107 82.7401 26.3974C82.7401 25.7841 82.8382 25.4775 83.0345 25.4775H92.2157C92.4242 25.4775 92.5285 25.7841 92.5285 26.3974C92.5285 27.0107 92.4242 27.3174 92.2157 27.3174H83.0345ZM80.5874 32.2116C80.3911 32.2116 80.293 31.9049 80.293 31.2916C80.293 30.6783 80.3911 30.3717 80.5874 30.3717H84.8744C85.0829 30.3717 85.1872 30.6783 85.1872 31.2916C85.1872 31.9049 85.0829 32.2116 84.8744 32.2116H80.5874ZM92.8229 37.1058C92.6266 37.1058 92.5285 36.7991 92.5285 36.1858C92.5285 35.5725 92.6266 35.2659 92.8229 35.2659H97.1099C97.3184 35.2659 97.4227 35.5725 97.4227 36.1858C97.4227 36.7991 97.3184 37.1058 97.1099 37.1058H92.8229ZM83.0345 34.6587C82.8382 34.6587 82.7401 34.352 82.7401 33.7387C82.7401 33.1254 82.8382 32.8188 83.0345 32.8188H94.6628C94.8713 32.8188 94.9756 33.1254 94.9756 33.7387C94.9756 34.352 94.8713 34.6587 94.6628 34.6587H83.0345ZM80.5874 39.5529C80.3911 39.5529 80.293 39.2462 80.293 38.6329C80.293 38.0196 80.3911 37.713 80.5874 37.713H84.8744C85.0829 37.713 85.1872 38.0196 85.1872 38.6329C85.1872 39.2462 85.0829 39.5529 84.8744 39.5529H80.5874ZM92.8229 39.5529C92.6266 39.5529 92.5285 39.2462 92.5285 38.6329C92.5285 38.0196 92.6266 37.713 92.8229 37.713H97.1099C97.3184 37.713 97.4227 38.0196 97.4227 38.6329C97.4227 39.2462 97.3184 39.5529 97.1099 39.5529H92.8229ZM83.0345 42C82.8382 42 82.7401 41.6933 82.7401 41.08C82.7401 40.4667 82.8382 40.1601 83.0345 40.1601H94.6628C94.8713 40.1601 94.9756 40.4667 94.9756 41.08C94.9756 41.6933 94.8713 42 94.6628 42H83.0345ZM102.605 27.3174C102.409 27.3174 102.31 27.0107 102.31 26.3974C102.31 25.7841 102.409 25.4775 102.605 25.4775H116.68C116.889 25.4775 116.993 25.7841 116.993 26.3974C116.993 27.0107 116.889 27.3174 116.68 27.3174H102.605ZM107.499 29.7645C107.303 29.7645 107.205 29.4578 107.205 28.8445C107.205 28.2312 107.303 27.9246 107.499 27.9246H111.786C111.995 27.9246 112.099 28.2312 112.099 28.8445C112.099 29.4578 111.995 29.7645 111.786 29.7645H107.499ZM107.499 32.2116C107.303 32.2116 107.205 31.9049 107.205 31.2916C107.205 30.6783 107.303 30.3717 107.499 30.3717H111.786C111.995 30.3717 112.099 30.6783 112.099 31.2916C112.099 31.9049 111.995 32.2116 111.786 32.2116H107.499ZM107.499 34.6587C107.303 34.6587 107.205 34.352 107.205 33.7387C107.205 33.1254 107.303 32.8188 107.499 32.8188H111.786C111.995 32.8188 112.099 33.1254 112.099 33.7387C112.099 34.352 111.995 34.6587 111.786 34.6587H107.499ZM107.499 37.1058C107.303 37.1058 107.205 36.7991 107.205 36.1858C107.205 35.5725 107.303 35.2659 107.499 35.2659H111.786C111.995 35.2659 112.099 35.5725 112.099 36.1858C112.099 36.7991 111.995 37.1058 111.786 37.1058H107.499ZM107.499 39.5529C107.303 39.5529 107.205 39.2462 107.205 38.6329C107.205 38.0196 107.303 37.713 107.499 37.713H111.786C111.995 37.713 112.099 38.0196 112.099 38.6329C112.099 39.2462 111.995 39.5529 111.786 39.5529H107.499ZM102.605 42C102.409 42 102.31 41.6933 102.31 41.08C102.31 40.4667 102.409 40.1601 102.605 40.1601H116.68C116.889 40.1601 116.993 40.4667 116.993 41.08C116.993 41.6933 116.889 42 116.68 42H102.605ZM119.728 29.7645C119.532 29.7645 119.434 29.4578 119.434 28.8445C119.434 28.2312 119.532 27.9246 119.728 27.9246H126.462C126.671 27.9246 126.775 28.2312 126.775 28.8445C126.775 29.4578 126.671 29.7645 126.462 29.7645H119.728ZM119.728 32.2116C119.532 32.2116 119.434 31.9049 119.434 31.2916C119.434 30.6783 119.532 30.3717 119.728 30.3717H128.909C129.118 30.3717 129.222 30.6783 129.222 31.2916C129.222 31.9049 129.118 32.2116 128.909 32.2116H119.728ZM119.728 37.1058C119.532 37.1058 119.434 36.7991 119.434 36.1858C119.434 35.5725 119.532 35.2659 119.728 35.2659H124.015C124.224 35.2659 124.328 35.5725 124.328 36.1858C124.328 36.7991 124.224 37.1058 124.015 37.1058H119.728ZM119.728 39.5529C119.532 39.5529 119.434 39.2462 119.434 38.6329C119.434 38.0196 119.532 37.713 119.728 37.713H124.015C124.224 37.713 124.328 38.0196 124.328 38.6329C124.328 39.2462 124.224 39.5529 124.015 39.5529H119.728ZM119.728 27.3174C119.532 27.3174 119.434 27.0107 119.434 26.3974C119.434 25.7841 119.532 25.4775 119.728 25.4775H124.015C124.224 25.4775 124.328 25.7841 124.328 26.3974C124.328 27.0107 124.224 27.3174 124.015 27.3174H119.728ZM119.728 42C119.532 42 119.434 41.6933 119.434 41.08C119.434 40.4667 119.532 40.1601 119.728 40.1601H124.015C124.224 40.1601 124.328 40.4667 124.328 41.08C124.328 41.6933 124.224 42 124.015 42H119.728ZM131.963 29.7645C131.767 29.7645 131.669 29.4578 131.669 28.8445C131.669 28.2312 131.767 27.9246 131.963 27.9246H136.251C136.459 27.9246 136.563 28.2312 136.563 28.8445C136.563 29.4578 136.459 29.7645 136.251 29.7645H131.963ZM127.069 37.1058C126.873 37.1058 126.775 36.7991 126.775 36.1858C126.775 35.5725 126.873 35.2659 127.069 35.2659H136.251C136.459 35.2659 136.563 35.5725 136.563 36.1858C136.563 36.7991 136.459 37.1058 136.251 37.1058H127.069ZM129.516 39.5529C129.32 39.5529 129.222 39.2462 129.222 38.6329C129.222 38.0196 129.32 37.713 129.516 37.713H136.251C136.459 37.713 136.563 38.0196 136.563 38.6329C136.563 39.2462 136.459 39.5529 136.251 39.5529H129.516ZM131.963 27.3174C131.767 27.3174 131.669 27.0107 131.669 26.3974C131.669 25.7841 131.767 25.4775 131.963 25.4775H136.251C136.459 25.4775 136.563 25.7841 136.563 26.3974C136.563 27.0107 136.459 27.3174 136.251 27.3174H131.963ZM131.963 42C131.767 42 131.669 41.6933 131.669 41.08C131.669 40.4667 131.767 40.1601 131.963 40.1601H136.251C136.459 40.1601 136.563 40.4667 136.563 41.08C136.563 41.6933 136.459 42 136.251 42H131.963ZM119.728 34.6587C119.532 34.6587 119.434 34.352 119.434 33.7387C119.434 33.1254 119.532 32.8188 119.728 32.8188H136.251C136.459 32.8188 136.563 33.1254 136.563 33.7387C136.563 34.352 136.459 34.6587 136.251 34.6587H119.728ZM131.963 32.2116C131.767 32.2116 131.669 31.9049 131.669 31.2916C131.669 30.6783 131.767 30.3717 131.963 30.3717H136.251C136.459 30.3717 136.563 30.6783 136.563 31.2916C136.563 31.9049 136.459 32.2116 136.251 32.2116H131.963ZM141.745 29.7645C141.549 29.7645 141.451 29.4578 141.451 28.8445C141.451 28.2312 141.549 27.9246 141.745 27.9246H146.032C146.241 27.9246 146.345 28.2312 146.345 28.8445C146.345 29.4578 146.241 29.7645 146.032 29.7645H141.745ZM149.087 34.6587C148.89 34.6587 148.792 34.352 148.792 33.7387C148.792 33.1254 148.89 32.8188 149.087 32.8188H155.821C156.029 32.8188 156.134 33.1254 156.134 33.7387C156.134 34.352 156.029 34.6587 155.821 34.6587H149.087ZM144.192 27.3174C143.996 27.3174 143.898 27.0107 143.898 26.3974C143.898 25.7841 143.996 25.4775 144.192 25.4775H155.821C156.029 25.4775 156.134 25.7841 156.134 26.3974C156.134 27.0107 156.029 27.3174 155.821 27.3174H144.192ZM139.298 32.2116C139.102 32.2116 139.004 31.9049 139.004 31.2916C139.004 30.6783 139.102 30.3717 139.298 30.3717H143.585C143.794 30.3717 143.898 30.6783 143.898 31.2916C143.898 31.9049 143.794 32.2116 143.585 32.2116H139.298ZM139.298 37.1058C139.102 37.1058 139.004 36.7991 139.004 36.1858C139.004 35.5725 139.102 35.2659 139.298 35.2659H143.585C143.794 35.2659 143.898 35.5725 143.898 36.1858C143.898 36.7991 143.794 37.1058 143.585 37.1058H139.298ZM139.298 34.6587C139.102 34.6587 139.004 34.352 139.004 33.7387C139.004 33.1254 139.102 32.8188 139.298 32.8188H143.585C143.794 32.8188 143.898 33.1254 143.898 33.7387C143.898 34.352 143.794 34.6587 143.585 34.6587H139.298ZM141.745 39.5529C141.549 39.5529 141.451 39.2462 141.451 38.6329C141.451 38.0196 141.549 37.713 141.745 37.713H146.032C146.241 37.713 146.345 38.0196 146.345 38.6329C146.345 39.2462 146.241 39.5529 146.032 39.5529H141.745ZM151.534 39.5529C151.338 39.5529 151.239 39.2462 151.239 38.6329C151.239 38.0196 151.338 37.713 151.534 37.713H155.821C156.029 37.713 156.134 38.0196 156.134 38.6329C156.134 39.2462 156.029 39.5529 155.821 39.5529H151.534ZM144.192 42C143.996 42 143.898 41.6933 143.898 41.08C143.898 40.4667 143.996 40.1601 144.192 40.1601H155.821C156.029 40.1601 156.134 40.4667 156.134 41.08C156.134 41.6933 156.029 42 155.821 42H144.192ZM151.534 37.1058C151.338 37.1058 151.239 36.7991 151.239 36.1858C151.239 35.5725 151.338 35.2659 151.534 35.2659H155.821C156.029 35.2659 156.134 35.5725 156.134 36.1858C156.134 36.7991 156.029 37.1058 155.821 37.1058H151.534ZM158.869 29.7645C158.672 29.7645 158.574 29.4578 158.574 28.8445C158.574 28.2312 158.672 27.9246 158.869 27.9246H163.156C163.364 27.9246 163.468 28.2312 163.468 28.8445C163.468 29.4578 163.364 29.7645 163.156 29.7645H158.869ZM158.869 27.3174C158.672 27.3174 158.574 27.0107 158.574 26.3974C158.574 25.7841 158.672 25.4775 158.869 25.4775H163.156C163.364 25.4775 163.468 25.7841 163.468 26.3974C163.468 27.0107 163.364 27.3174 163.156 27.3174H158.869ZM158.869 32.2116C158.672 32.2116 158.574 31.9049 158.574 31.2916C158.574 30.6783 158.672 30.3717 158.869 30.3717H163.156C163.364 30.3717 163.468 30.6783 163.468 31.2916C163.468 31.9049 163.364 32.2116 163.156 32.2116H158.869ZM158.869 37.1058C158.672 37.1058 158.574 36.7991 158.574 36.1858C158.574 35.5725 158.672 35.2659 158.869 35.2659H163.156C163.364 35.2659 163.468 35.5725 163.468 36.1858C163.468 36.7991 163.364 37.1058 163.156 37.1058H158.869ZM158.869 34.6587C158.672 34.6587 158.574 34.352 158.574 33.7387C158.574 33.1254 158.672 32.8188 158.869 32.8188H163.156C163.364 32.8188 163.468 33.1254 163.468 33.7387C163.468 34.352 163.364 34.6587 163.156 34.6587H158.869ZM158.869 39.5529C158.672 39.5529 158.574 39.2462 158.574 38.6329C158.574 38.0196 158.672 37.713 158.869 37.713H163.156C163.364 37.713 163.468 38.0196 163.468 38.6329C163.468 39.2462 163.364 39.5529 163.156 39.5529H158.869ZM158.869 42C158.672 42 158.574 41.6933 158.574 41.08C158.574 40.4667 158.672 40.1601 158.869 40.1601H175.391C175.6 40.1601 175.704 40.4667 175.704 41.08C175.704 41.6933 175.6 42 175.391 42H158.869ZM178.439 29.7645C178.243 29.7645 178.145 29.4578 178.145 28.8445C178.145 28.2312 178.243 27.9246 178.439 27.9246H182.726C182.934 27.9246 183.039 28.2312 183.039 28.8445C183.039 29.4578 182.934 29.7645 182.726 29.7645H178.439ZM178.439 27.3174C178.243 27.3174 178.145 27.0107 178.145 26.3974C178.145 25.7841 178.243 25.4775 178.439 25.4775H194.961C195.17 25.4775 195.274 25.7841 195.274 26.3974C195.274 27.0107 195.17 27.3174 194.961 27.3174H178.439ZM178.439 32.2116C178.243 32.2116 178.145 31.9049 178.145 31.2916C178.145 30.6783 178.243 30.3717 178.439 30.3717H182.726C182.934 30.3717 183.039 30.6783 183.039 31.2916C183.039 31.9049 182.934 32.2116 182.726 32.2116H178.439ZM178.439 37.1058C178.243 37.1058 178.145 36.7991 178.145 36.1858C178.145 35.5725 178.243 35.2659 178.439 35.2659H182.726C182.934 35.2659 183.039 35.5725 183.039 36.1858C183.039 36.7991 182.934 37.1058 182.726 37.1058H178.439ZM178.439 34.6587C178.243 34.6587 178.145 34.352 178.145 33.7387C178.145 33.1254 178.243 32.8188 178.439 32.8188H192.514C192.723 32.8188 192.827 33.1254 192.827 33.7387C192.827 34.352 192.723 34.6587 192.514 34.6587H178.439ZM178.439 39.5529C178.243 39.5529 178.145 39.2462 178.145 38.6329C178.145 38.0196 178.243 37.713 178.439 37.713H182.726C182.934 37.713 183.039 38.0196 183.039 38.6329C183.039 39.2462 182.934 39.5529 182.726 39.5529H178.439ZM178.439 42C178.243 42 178.145 41.6933 178.145 41.08C178.145 40.4667 178.243 40.1601 178.439 40.1601H194.961C195.17 40.1601 195.274 40.4667 195.274 41.08C195.274 41.6933 195.17 42 194.961 42H178.439ZM217.58 29.7645C217.383 29.7645 217.285 29.4578 217.285 28.8445C217.285 28.2312 217.383 27.9246 217.58 27.9246H221.867C222.075 27.9246 222.179 28.2312 222.179 28.8445C222.179 29.4578 222.075 29.7645 221.867 29.7645H217.58ZM229.815 29.7645C229.619 29.7645 229.521 29.4578 229.521 28.8445C229.521 28.2312 229.619 27.9246 229.815 27.9246H234.102C234.311 27.9246 234.415 28.2312 234.415 28.8445C234.415 29.4578 234.311 29.7645 234.102 29.7645H229.815ZM217.58 27.3174C217.383 27.3174 217.285 27.0107 217.285 26.3974C217.285 25.7841 217.383 25.4775 217.58 25.4775H231.655C231.864 25.4775 231.968 25.7841 231.968 26.3974C231.968 27.0107 231.864 27.3174 231.655 27.3174H217.58ZM217.58 32.2116C217.383 32.2116 217.285 31.9049 217.285 31.2916C217.285 30.6783 217.383 30.3717 217.58 30.3717H221.867C222.075 30.3717 222.179 30.6783 222.179 31.2916C222.179 31.9049 222.075 32.2116 221.867 32.2116H217.58ZM229.815 32.2116C229.619 32.2116 229.521 31.9049 229.521 31.2916C229.521 30.6783 229.619 30.3717 229.815 30.3717H234.102C234.311 30.3717 234.415 30.6783 234.415 31.2916C234.415 31.9049 234.311 32.2116 234.102 32.2116H229.815ZM217.58 37.1058C217.383 37.1058 217.285 36.7991 217.285 36.1858C217.285 35.5725 217.383 35.2659 217.58 35.2659H231.655C231.864 35.2659 231.968 35.5725 231.968 36.1858C231.968 36.7991 231.864 37.1058 231.655 37.1058H217.58ZM217.58 34.6587C217.383 34.6587 217.285 34.352 217.285 33.7387C217.285 33.1254 217.383 32.8188 217.58 32.8188H221.867C222.075 32.8188 222.179 33.1254 222.179 33.7387C222.179 34.352 222.075 34.6587 221.867 34.6587H217.58ZM217.58 39.5529C217.383 39.5529 217.285 39.2462 217.285 38.6329C217.285 38.0196 217.383 37.713 217.58 37.713H221.867C222.075 37.713 222.179 38.0196 222.179 38.6329C222.179 39.2462 222.075 39.5529 221.867 39.5529H217.58ZM217.58 42C217.383 42 217.285 41.6933 217.285 41.08C217.285 40.4667 217.383 40.1601 217.58 40.1601H221.867C222.075 40.1601 222.179 40.4667 222.179 41.08C222.179 41.6933 222.075 42 221.867 42H217.58ZM229.815 34.6587C229.619 34.6587 229.521 34.352 229.521 33.7387C229.521 33.1254 229.619 32.8188 229.815 32.8188H234.102C234.311 32.8188 234.415 33.1254 234.415 33.7387C234.415 34.352 234.311 34.6587 234.102 34.6587H229.815ZM237.15 29.7645C236.954 29.7645 236.855 29.4578 236.855 28.8445C236.855 28.2312 236.954 27.9246 237.15 27.9246H241.437C241.645 27.9246 241.75 28.2312 241.75 28.8445C241.75 29.4578 241.645 29.7645 241.437 29.7645H237.15ZM237.15 27.3174C236.954 27.3174 236.855 27.0107 236.855 26.3974C236.855 25.7841 236.954 25.4775 237.15 25.4775H241.437C241.645 25.4775 241.75 25.7841 241.75 26.3974C241.75 27.0107 241.645 27.3174 241.437 27.3174H237.15ZM237.15 32.2116C236.954 32.2116 236.855 31.9049 236.855 31.2916C236.855 30.6783 236.954 30.3717 237.15 30.3717H241.437C241.645 30.3717 241.75 30.6783 241.75 31.2916C241.75 31.9049 241.645 32.2116 241.437 32.2116H237.15ZM237.15 37.1058C236.954 37.1058 236.855 36.7991 236.855 36.1858C236.855 35.5725 236.954 35.2659 237.15 35.2659H241.437C241.645 35.2659 241.75 35.5725 241.75 36.1858C241.75 36.7991 241.645 37.1058 241.437 37.1058H237.15ZM237.15 34.6587C236.954 34.6587 236.855 34.352 236.855 33.7387C236.855 33.1254 236.954 32.8188 237.15 32.8188H241.437C241.645 32.8188 241.75 33.1254 241.75 33.7387C241.75 34.352 241.645 34.6587 241.437 34.6587H237.15ZM237.15 39.5529C236.954 39.5529 236.855 39.2462 236.855 38.6329C236.855 38.0196 236.954 37.713 237.15 37.713H241.437C241.645 37.713 241.75 38.0196 241.75 38.6329C241.75 39.2462 241.645 39.5529 241.437 39.5529H237.15ZM237.15 42C236.954 42 236.855 41.6933 236.855 41.08C236.855 40.4667 236.954 40.1601 237.15 40.1601H253.672C253.881 40.1601 253.985 40.4667 253.985 41.08C253.985 41.6933 253.881 42 253.672 42H237.15ZM259.167 29.7645C258.971 29.7645 258.873 29.4578 258.873 28.8445C258.873 28.2312 258.971 27.9246 259.167 27.9246H263.454C263.663 27.9246 263.767 28.2312 263.767 28.8445C263.767 29.4578 263.663 29.7645 263.454 29.7645H259.167ZM266.509 29.7645C266.312 29.7645 266.214 29.4578 266.214 28.8445C266.214 28.2312 266.312 27.9246 266.509 27.9246H270.796C271.004 27.9246 271.108 28.2312 271.108 28.8445C271.108 29.4578 271.004 29.7645 270.796 29.7645H266.509ZM261.614 27.3174C261.418 27.3174 261.32 27.0107 261.32 26.3974C261.32 25.7841 261.418 25.4775 261.614 25.4775H268.349C268.557 25.4775 268.661 25.7841 268.661 26.3974C268.661 27.0107 268.557 27.3174 268.349 27.3174H261.614ZM256.72 32.2116C256.524 32.2116 256.426 31.9049 256.426 31.2916C256.426 30.6783 256.524 30.3717 256.72 30.3717H261.007C261.216 30.3717 261.32 30.6783 261.32 31.2916C261.32 31.9049 261.216 32.2116 261.007 32.2116H256.72ZM268.956 32.2116C268.759 32.2116 268.661 31.9049 268.661 31.2916C268.661 30.6783 268.759 30.3717 268.956 30.3717H273.243C273.451 30.3717 273.555 30.6783 273.555 31.2916C273.555 31.9049 273.451 32.2116 273.243 32.2116H268.956ZM256.72 34.6587C256.524 34.6587 256.426 34.352 256.426 33.7387C256.426 33.1254 256.524 32.8188 256.72 32.8188H261.007C261.216 32.8188 261.32 33.1254 261.32 33.7387C261.32 34.352 261.216 34.6587 261.007 34.6587H256.72ZM268.956 34.6587C268.759 34.6587 268.661 34.352 268.661 33.7387C268.661 33.1254 268.759 32.8188 268.956 32.8188H273.243C273.451 32.8188 273.555 33.1254 273.555 33.7387C273.555 34.352 273.451 34.6587 273.243 34.6587H268.956ZM256.72 37.1058C256.524 37.1058 256.426 36.7991 256.426 36.1858C256.426 35.5725 256.524 35.2659 256.72 35.2659H273.243C273.451 35.2659 273.555 35.5725 273.555 36.1858C273.555 36.7991 273.451 37.1058 273.243 37.1058H256.72ZM256.72 39.5529C256.524 39.5529 256.426 39.2462 256.426 38.6329C256.426 38.0196 256.524 37.713 256.72 37.713H261.007C261.216 37.713 261.32 38.0196 261.32 38.6329C261.32 39.2462 261.216 39.5529 261.007 39.5529H256.72ZM268.956 39.5529C268.759 39.5529 268.661 39.2462 268.661 38.6329C268.661 38.0196 268.759 37.713 268.956 37.713H273.243C273.451 37.713 273.555 38.0196 273.555 38.6329C273.555 39.2462 273.451 39.5529 273.243 39.5529H268.956ZM256.72 42C256.524 42 256.426 41.6933 256.426 41.08C256.426 40.4667 256.524 40.1601 256.72 40.1601H261.007C261.216 40.1601 261.32 40.4667 261.32 41.08C261.32 41.6933 261.216 42 261.007 42H256.72ZM268.956 42C268.759 42 268.661 41.6933 268.661 41.08C268.661 40.4667 268.759 40.1601 268.956 40.1601H273.243C273.451 40.1601 273.555 40.4667 273.555 41.08C273.555 41.6933 273.451 42 273.243 42H268.956ZM278.738 27.3174C278.541 27.3174 278.443 27.0107 278.443 26.3974C278.443 25.7841 278.541 25.4775 278.738 25.4775H283.025C283.233 25.4775 283.337 25.7841 283.337 26.3974C283.337 27.0107 283.233 27.3174 283.025 27.3174H278.738ZM278.738 29.7645C278.541 29.7645 278.443 29.4578 278.443 28.8445C278.443 28.2312 278.541 27.9246 278.738 27.9246H283.025C283.233 27.9246 283.337 28.2312 283.337 28.8445C283.337 29.4578 283.233 29.7645 283.025 29.7645H278.738ZM278.738 32.2116C278.541 32.2116 278.443 31.9049 278.443 31.2916C278.443 30.6783 278.541 30.3717 278.738 30.3717H283.025C283.233 30.3717 283.337 30.6783 283.337 31.2916C283.337 31.9049 283.233 32.2116 283.025 32.2116H278.738ZM281.185 34.6587C280.988 34.6587 280.89 34.352 280.89 33.7387C280.89 33.1254 280.988 32.8188 281.185 32.8188H290.366C290.574 32.8188 290.679 33.1254 290.679 33.7387C290.679 34.352 290.574 34.6587 290.366 34.6587H281.185ZM288.526 27.3174C288.33 27.3174 288.232 27.0107 288.232 26.3974C288.232 25.7841 288.33 25.4775 288.526 25.4775H292.813C293.022 25.4775 293.126 25.7841 293.126 26.3974C293.126 27.0107 293.022 27.3174 292.813 27.3174H288.526ZM288.526 29.7645C288.33 29.7645 288.232 29.4578 288.232 28.8445C288.232 28.2312 288.33 27.9246 288.526 27.9246H292.813C293.022 27.9246 293.126 28.2312 293.126 28.8445C293.126 29.4578 293.022 29.7645 292.813 29.7645H288.526ZM283.632 37.1058C283.436 37.1058 283.337 36.7991 283.337 36.1858C283.337 35.5725 283.436 35.2659 283.632 35.2659H287.919C288.127 35.2659 288.232 35.5725 288.232 36.1858C288.232 36.7991 288.127 37.1058 287.919 37.1058H283.632ZM283.632 39.5529C283.436 39.5529 283.337 39.2462 283.337 38.6329C283.337 38.0196 283.436 37.713 283.632 37.713H287.919C288.127 37.713 288.232 38.0196 288.232 38.6329C288.232 39.2462 288.127 39.5529 287.919 39.5529H283.632ZM283.632 42C283.436 42 283.337 41.6933 283.337 41.08C283.337 40.4667 283.436 40.1601 283.632 40.1601H287.919C288.127 40.1601 288.232 40.4667 288.232 41.08C288.232 41.6933 288.127 42 287.919 42H283.632ZM288.526 32.2116C288.33 32.2116 288.232 31.9049 288.232 31.2916C288.232 30.6783 288.33 30.3717 288.526 30.3717H292.813C293.022 30.3717 293.126 30.6783 293.126 31.2916C293.126 31.9049 293.022 32.2116 292.813 32.2116H288.526ZM295.861 29.7645C295.665 29.7645 295.566 29.4578 295.566 28.8445C295.566 28.2312 295.665 27.9246 295.861 27.9246H300.148C300.356 27.9246 300.461 28.2312 300.461 28.8445C300.461 29.4578 300.356 29.7645 300.148 29.7645H295.861ZM295.861 27.3174C295.665 27.3174 295.566 27.0107 295.566 26.3974C295.566 25.7841 295.665 25.4775 295.861 25.4775H312.383C312.592 25.4775 312.696 25.7841 312.696 26.3974C312.696 27.0107 312.592 27.3174 312.383 27.3174H295.861ZM295.861 32.2116C295.665 32.2116 295.566 31.9049 295.566 31.2916C295.566 30.6783 295.665 30.3717 295.861 30.3717H300.148C300.356 30.3717 300.461 30.6783 300.461 31.2916C300.461 31.9049 300.356 32.2116 300.148 32.2116H295.861ZM295.861 37.1058C295.665 37.1058 295.566 36.7991 295.566 36.1858C295.566 35.5725 295.665 35.2659 295.861 35.2659H300.148C300.356 35.2659 300.461 35.5725 300.461 36.1858C300.461 36.7991 300.356 37.1058 300.148 37.1058H295.861ZM295.861 34.6587C295.665 34.6587 295.566 34.352 295.566 33.7387C295.566 33.1254 295.665 32.8188 295.861 32.8188H309.936C310.145 32.8188 310.249 33.1254 310.249 33.7387C310.249 34.352 310.145 34.6587 309.936 34.6587H295.861ZM295.861 39.5529C295.665 39.5529 295.566 39.2462 295.566 38.6329C295.566 38.0196 295.665 37.713 295.861 37.713H300.148C300.356 37.713 300.461 38.0196 300.461 38.6329C300.461 39.2462 300.356 39.5529 300.148 39.5529H295.861ZM295.861 42C295.665 42 295.566 41.6933 295.566 41.08C295.566 40.4667 295.665 40.1601 295.861 40.1601H312.383C312.592 40.1601 312.696 40.4667 312.696 41.08C312.696 41.6933 312.592 42 312.383 42H295.861ZM315.431 29.7645C315.235 29.7645 315.137 29.4578 315.137 28.8445C315.137 28.2312 315.235 27.9246 315.431 27.9246H319.718C319.927 27.9246 320.031 28.2312 320.031 28.8445C320.031 29.4578 319.927 29.7645 319.718 29.7645H315.431ZM327.667 29.7645C327.47 29.7645 327.372 29.4578 327.372 28.8445C327.372 28.2312 327.47 27.9246 327.667 27.9246H331.954C332.162 27.9246 332.266 28.2312 332.266 28.8445C332.266 29.4578 332.162 29.7645 331.954 29.7645H327.667ZM315.431 27.3174C315.235 27.3174 315.137 27.0107 315.137 26.3974C315.137 25.7841 315.235 25.4775 315.431 25.4775H329.507C329.715 25.4775 329.819 25.7841 329.819 26.3974C329.819 27.0107 329.715 27.3174 329.507 27.3174H315.431ZM315.431 32.2116C315.235 32.2116 315.137 31.9049 315.137 31.2916C315.137 30.6783 315.235 30.3717 315.431 30.3717H319.718C319.927 30.3717 320.031 30.6783 320.031 31.2916C320.031 31.9049 319.927 32.2116 319.718 32.2116H315.431ZM327.667 32.2116C327.47 32.2116 327.372 31.9049 327.372 31.2916C327.372 30.6783 327.47 30.3717 327.667 30.3717H331.954C332.162 30.3717 332.266 30.6783 332.266 31.2916C332.266 31.9049 332.162 32.2116 331.954 32.2116H327.667ZM315.431 37.1058C315.235 37.1058 315.137 36.7991 315.137 36.1858C315.137 35.5725 315.235 35.2659 315.431 35.2659H327.059C327.268 35.2659 327.372 35.5725 327.372 36.1858C327.372 36.7991 327.268 37.1058 327.059 37.1058H315.431ZM315.431 34.6587C315.235 34.6587 315.137 34.352 315.137 33.7387C315.137 33.1254 315.235 32.8188 315.431 32.8188H319.718C319.927 32.8188 320.031 33.1254 320.031 33.7387C320.031 34.352 319.927 34.6587 319.718 34.6587H315.431ZM315.431 39.5529C315.235 39.5529 315.137 39.2462 315.137 38.6329C315.137 38.0196 315.235 37.713 315.431 37.713H319.718C319.927 37.713 320.031 38.0196 320.031 38.6329C320.031 39.2462 319.927 39.5529 319.718 39.5529H315.431ZM322.772 39.5529C322.576 39.5529 322.478 39.2462 322.478 38.6329C322.478 38.0196 322.576 37.713 322.772 37.713H329.507C329.715 37.713 329.819 38.0196 329.819 38.6329C329.819 39.2462 329.715 39.5529 329.507 39.5529H322.772ZM315.431 42C315.235 42 315.137 41.6933 315.137 41.08C315.137 40.4667 315.235 40.1601 315.431 40.1601H319.718C319.927 40.1601 320.031 40.4667 320.031 41.08C320.031 41.6933 319.927 42 319.718 42H315.431ZM325.22 34.6587C325.023 34.6587 324.925 34.352 324.925 33.7387C324.925 33.1254 325.023 32.8188 325.22 32.8188H331.954C332.162 32.8188 332.266 33.1254 332.266 33.7387C332.266 34.352 332.162 34.6587 331.954 34.6587H325.22ZM325.22 42C325.023 42 324.925 41.6933 324.925 41.08C324.925 40.4667 325.023 40.1601 325.22 40.1601H331.954C332.162 40.1601 332.266 40.4667 332.266 41.08C332.266 41.6933 332.162 42 331.954 42H325.22Z" fill="white"/>
</svg>
