<svg width="359" height="65" viewBox="0 0 359 65" fill="none" xmlns="http://www.w3.org/2000/svg">
<path d="M9.70495 0.763571H46.4115V9.9402H55.5881V19.1168H37.2349V9.9402H18.8816V28.2935H55.5881V37.4701H64.7647V55.8234H55.5881V65H9.70495V55.8234H0.52832V46.6467H18.8816V55.8234H46.4115V37.4701H9.70495V28.2935H0.52832V9.9402H9.70495V0.763571ZM83.0936 0.763571H138.153V9.9402H119.8V65H101.447V9.9402H83.0936V0.763571ZM165.659 0.763571H193.189V9.9402H202.365V19.1168H211.542V65H193.189V46.6467H165.659V65H147.306V19.1168H156.482V9.9402H165.659V0.763571ZM174.836 9.9402V19.1168H165.659V37.4701H193.189V19.1168H184.012V9.9402H174.836ZM220.694 0.763571H275.754V9.9402H284.931V37.4701H266.577V46.6467H275.754V55.8234H284.931V65H257.401V55.8234H248.224V46.6467H239.048V65H220.694V0.763571ZM239.048 9.9402V37.4701H257.401V28.2935H266.577V9.9402H239.048ZM303.26 0.763571H358.319V9.9402H339.966V65H321.613V9.9402H303.26V0.763571Z" fill="#B27AF4"/>
</svg>
